<svg version="1.2" xmlns="http://www.w3.org/2000/svg" viewBox="0 0 42 42"><style>.a{fill:#004482}.b{fill:#659ad2}.c{fill:#fff}.d{fill:#00599c}</style><path fill-rule="evenodd" class="a" d="m19.9 0.3c0.7-0.4 1.5-0.4 2.2 0 3.4 1.9 13.4 7.5 16.8 9.4 0.7 0.4 1.1 1.1 1.1 1.9 0 3.7 0 15.1 0 18.8 0 0.8-0.4 1.5-1.1 1.9-3.4 1.9-13.4 7.5-16.8 9.4-0.7 0.4-1.5 0.4-2.2 0-3.4-1.9-13.4-7.5-16.8-9.4-0.7-0.4-1.1-1.1-1.1-1.9 0-3.7 0-15.1 0-18.8 0-0.8 0.4-1.5 1.1-1.9 3.4-1.9 13.4-7.5 16.8-9.4z"/><path fill-rule="evenodd" class="b" d="m2.3 31.4c-0.3-0.4-0.3-0.7-0.3-1.1 0-3.8 0-15.1 0-18.8 0-0.8 0.4-1.5 1.1-1.8 3.3-1.9 13.4-7.5 16.7-9.4 0.7-0.4 1.6-0.4 2.3 0 3.4 1.9 13.4 7.4 16.7 9.3q0.4 0.2 0.7 0.6z"/><path fill-rule="evenodd" class="c" d="m21 7c7.7 0 14 6.3 14 14 0 7.7-6.3 14-14 14-7.7 0-14-6.3-14-14 0-7.7 6.3-14 14-14zm-7 14c0 3.9 3.1 7 7 7 3.9 0 7-3.1 7-7 0-3.9-3.1-7-7-7-3.9 0-7 3.1-7 7z"/><path fill-rule="evenodd" class="d" d="m39.5 10.2c0.5 0.5 0.5 1.2 0.5 1.8 0 3.8 0 14.6 0 18.4 0 0.4-0.1 0.8-0.3 1.1l-19.1-10.5z"/></svg>
