<svg xmlns="http://www.w3.org/2000/svg" version="1.2" viewBox="0 0 42 42"><path fill-rule="evenodd" d="M19.9.3c.7-.4 1.5-.4 2.2 0 3.4 1.9 13.4 7.5 16.8 9.4.7.4 1.1 1.1 1.1 1.9v18.8c0 .8-.4 1.5-1.1 1.9-3.4 1.9-13.4 7.5-16.8 9.4-.7.4-1.5.4-2.2 0-3.4-1.9-13.4-7.5-16.8-9.4-.7-.4-1.1-1.1-1.1-1.9V11.6c0-.8.4-1.5 1.1-1.9C6.5 7.8 16.5 2.2 19.9.3" style="fill:#004482"/><path fill-rule="evenodd" d="M2.3 31.4C2 31 2 30.7 2 30.3V11.5c0-.8.4-1.5 1.1-1.8C6.4 7.8 16.5 2.2 19.8.3c.7-.4 1.6-.4 2.3 0 3.4 1.9 13.4 7.4 16.7 9.3q.4.2.7.6z" style="fill:#659ad2"/><path fill-rule="evenodd" d="M21 7c7.7 0 14 6.3 14 14s-6.3 14-14 14S7 28.7 7 21 13.3 7 21 7m-7 14c0 3.9 3.1 7 7 7s7-3.1 7-7-3.1-7-7-7-7 3.1-7 7" style="fill:#fff"/><path fill-rule="evenodd" d="M39.5 10.2c.5.5.5 1.2.5 1.8v18.4c0 .4-.1.8-.3 1.1L20.6 21z" style="fill:#00599c"/></svg>