<svg xmlns="http://www.w3.org/2000/svg" version="1.2" viewBox="0 0 345 345"><style>.d{fill:#fff}</style><path d="M321.1 258.3c2.4-4.2 3.9-8.9 3.9-13.1V99.1c0-4.2-1.5-8.9-3.9-13L172 172.2z" style="fill:#00599c"/><path d="m185.3 341.2 126.4-73c3.7-2.1 7-5.8 9.4-9.9L172 172.2 22.9 258.3c2.4 4.1 5.7 7.8 9.3 9.9l126.5 73c7.3 4.2 19.3 4.2 26.5 0z" style="fill:#004482"/><path d="M321.1 86.1c-2.4-4.2-5.7-7.8-9.4-9.9l-126.5-73c-7.2-4.3-19.2-4.3-26.5 0l-126.5 73C25 80.4 19 90.7 19 99.1v146.1c0 4.2 1.5 8.9 3.9 13.1L172 172.2z" style="fill:#659ad2"/><path d="M172 274.2c-56.2 0-102-45.8-102-102 0-56.3 45.8-102 102-102 36.3 0 70.1 19.5 88.3 50.9l-44.1 25.6c-9.1-15.7-26-25.5-44.2-25.5-28.1 0-51 22.9-51 51s22.9 51 51 51c18.2 0 35.1-9.8 44.2-25.5l44.1 25.5c-18.2 31.4-52 51-88.3 51" class="d"/><path d="M274 166.5h-11.3v-11.3h-11.4v11.3H240v11.3h11.3v11.4h11.4v-11.4H274zm42.5 0h-11.3v-11.3h-11.4v11.3h-11.3v11.3h11.3v11.4h11.4v-11.4h11.3z" class="d"/></svg>