<svg version="1.2" xmlns="http://www.w3.org/2000/svg" viewBox="0 0 288 288"><style>.a{fill:#a179dc}.b{fill:#280068}.c{fill:#390091}.d{fill:#fff}</style><path class="a" d="m271.6 84.5q0-7.3-3.2-12.8-3-5.4-9.2-9c-34-19.6-68.1-39.2-102.1-58.8-9.2-5.3-18.1-5.1-27.2 0.2-13.5 8-81.3 46.9-101.5 58.6-8.3 4.8-12.4 12.2-12.4 21.7q0 59.2 0 118.4 0 7.1 3 12.5c2 3.7 5.2 6.8 9.4 9.3 20.2 11.7 88 50.5 101.5 58.5 9.1 5.4 18 5.6 27.2 0.3 34-19.7 68.1-39.2 102.1-58.8 4.2-2.5 7.3-5.6 9.4-9.3q3-5.4 3-12.5c0 0 0-78.9 0-118.3z"/><path class="b" d="m144.2 143.2l-125.2 72.1c2 3.7 5.2 6.8 9.4 9.3 20.2 11.7 88 50.5 101.5 58.5 9.1 5.4 18 5.6 27.2 0.3 34-19.7 68.1-39.2 102.1-58.8 4.2-2.5 7.3-5.6 9.4-9.3z"/><path class="c" d="m271.6 84.5q0-7.3-3.2-12.8l-124.2 71.5 124.4 72.1q3-5.4 3-12.5c0 0 0-78.9 0-118.3z"/><path fill-rule="evenodd" class="d" d="m217.9 116.3v13.5h13.5v-13.5h6.7v13.5h13.5v6.7h-13.5v13.5h13.5v6.7h-13.5v13.5h-6.7v-13.5h-13.5v13.5h-6.7v-13.5h-13.5v-6.7h13.5v-13.5h-13.5v-6.7h13.5v-13.5zm13.4 20.2h-13.4v13.5h13.4z"/><path class="d" d="m144.5 48.6c35.1 0 65.8 19.1 82.2 47.5l-0.1-0.3-41.4 23.8c-8.1-13.8-23.1-23.1-40.2-23.3h-0.5c-26.2 0-47.3 21.2-47.3 47.3 0 8.6 2.2 16.6 6.2 23.5 8.1 14.2 23.5 23.8 41.1 23.8 17.6 0 33.1-9.7 41.2-24.1l-0.2 0.4 41.3 23.9c-16.3 28.1-46.5 47.1-81.3 47.5h-1c-35.3 0-66.1-19.2-82.5-47.7-8-13.9-12.5-30.1-12.5-47.3 0-52.4 42.5-95 95-95z"/></svg>
