<svg xmlns="http://www.w3.org/2000/svg" version="1.2" viewBox="0 0 439 439"><path fill-rule="evenodd" d="m429.9 182.3 9.1 6.2-1.6 3.3c-2.8 6-3.8 7.9-4.2 8.6-16.3 31.5-48 31.7-62.7 31.4-37.5 91.6-117.3 141.9-225.3 141.9-49.8 0-87.9-15.5-113.4-46-33.5-40.1-33.5-92.4-30.7-109.1l.6-3.5h298c15.6.3 27.3-4.1 33.2-7.4-5.9-9.1-7.8-19.7-8.4-25.5-1.3-16.7 2.8-34.1 11-46.6l6.4-9.7 9.6 6.5c16.6 13.1 25.8 27.6 28.1 44.3 17.6-3.4 40.3-.9 50.3 5.6M240 106.7h-45.3V65H240zm0 50.1h-45.3v-41.7H240zm-53.6 0h-45.3v-41.7h45.3zm-53.5 0H87.6v-41.7h45.3zm-53.6 50.1H34v-41.7h45.3zm53.6 0H87.6v-41.7h45.3zm53.5 0h-45.3v-41.7h45.3zm53.6 0h-45.3v-41.7H240zm53.6 0h-45.3v-41.7h45.3z" style="fill:#1d63ed"/></svg>