<svg version="1.2" xmlns="http://www.w3.org/2000/svg" viewBox="0 0 456 456"><style>.a{fill:#512bd4}.b{fill:#fff}</style><path class="a" d="m0 0h456v456h-456z"/><path class="b" d="m81.3 291.3q-4.9 0-8.2-3.2-3.4-3.3-3.4-7.8 0-4.7 3.4-8 3.3-3.3 8.2-3.3 4.9 0 8.3 3.3 3.4 3.3 3.4 8 0 4.5-3.4 7.8-3.4 3.2-8.3 3.2z"/><path class="b" d="m210.2 289.5h-21l-55.2-87.1q-2.1-3.3-3.5-6.9h-0.5q0.7 3.8 0.7 16.3v77.7h-18.6v-118.5h22.4l53.3 85q3.4 5.3 4.4 7.3h0.3q-0.8-4.7-0.8-15.9v-76.4h18.5z"/><path class="b" d="m300.4 289.5h-64.8v-118.5h62.3v16.7h-43.2v33.5h39.8v16.7h-39.8v35h45.7z"/><path class="b" d="m392.7 187.7h-33.2v101.8h-19.2v-101.8h-33.2v-16.7h85.6z"/></svg>
