<svg xmlns="http://www.w3.org/2000/svg" version="1.2" viewBox="0 0 456 456">
  <style>
    .b{fill:#fff}
  </style>
  <path d="M0 0h456v456H0z" style="fill:#512bd4"/>
  <path d="M81.3 291.3q-4.9 0-8.2-3.2-3.4-3.3-3.4-7.8 0-4.7 3.4-8 3.3-3.3 8.2-3.3 4.9 0 8.3 3.3 3.4 3.3 3.4 8 0 4.5-3.4 7.8-3.4 3.2-8.3 3.2zM210.2 289.5h-21L134 202.4q-2.1-3.3-3.5-6.9h-.5q.7 3.8.7 16.3v77.7h-18.6V171h22.4l53.3 85q3.4 5.3 4.4 7.3h.3q-.8-4.7-.8-15.9V171h18.5zM300.4 289.5h-64.8V171h62.3v16.7h-43.2v33.5h39.8v16.7h-39.8v35h45.7zM392.7 187.7h-33.2v101.8h-19.2V187.7h-33.2V171h85.6z" class="b"/>
</svg>
