<svg xmlns="http://www.w3.org/2000/svg" version="1.2" viewBox="0 0 540 540"><style>.s0{fill:#f6d2a2}.s0,.s1,.s2,.s3{stroke:#000;stroke-linecap:round;stroke-width:3}.s1{fill:#c6b198}.s2{fill:#6ad7e5}.s3{fill:none}.s4{fill:#000}.s7{stroke:#000;stroke-linecap:round;stroke-width:3}.s7,.s8{fill:#fff}</style><path id="Layer" fill-rule="evenodd" d="M79.6 290.5c.8 15.7 16.5 8.5 23.7 3.5 6.7-4.6 8.7-.8 9.3-10 .4-6 1.1-12.1.7-18.2-10.2-.9-21.3 1.5-29.7 7.6-4.3 3.1-12.4 13.2-4 17.1z" class="s0"/><path fill-rule="evenodd" d="M79.6 290.5c2.3-.9 4.8-1.5 6.3-3.5" class="s1"/><path fill-rule="evenodd" d="M116 102.9c-60.3-17-15.5-93.7 33-62.2zM383.9 35c47.7-33.5 90.9 42.1 35.4 61.1z" class="s2"/><path fill-rule="evenodd" d="M394.2 484.3c12.1 7.5 34.2 30.2 16.1 41.2-17.5 16-27.3-17.5-42.6-22.2 6.6-9 14.9-17.1 26.5-19z" class="s0"/><path fill-rule="evenodd" d="M410.3 525.5c-2.7-5.3-3.6-11.6-8.1-15.9" class="s3"/><path fill-rule="evenodd" d="M177.6 510c-14.3 2.2-22.3 15-34.1 21.5-11.2 6.7-15.5-2.1-16.5-3.9-1.7-.8-1.6.8-4.3-2-10.4-16.3 10.8-28.3 21.8-36.4 15.4-3.1 25 10.2 33.1 20.8z" class="s0"/><path fill-rule="evenodd" d="M127 527.6c.6-6.2 5.5-10.4 7.9-15.7" class="s3"/><path fill-rule="evenodd" d="M118.5 81.7c-7.9-4.2-13.8-10-8.9-19.2 4.5-8.5 12.9-7.6 20.8-3.3zm288.2-8c8-4.2 13.8-10 8.9-19.2-4.5-8.5-12.8-7.6-20.8-3.3z" class="s4"/><path fill-rule="evenodd" d="M461.5 288.5c-.8 15.7-16.5 8.5-23.7 3.5-6.7-4.6-8.7-.8-9.3-10-.4-6-1.1-12.1-.7-18.2 10.2-.9 21.3 1.5 29.7 7.6 4.3 3.1 12.4 13.2 4 17.1z" class="s0"/><path fill-rule="evenodd" d="M461.5 288.5c-2.3-.9-4.7-1.5-6.3-3.5" class="s1"/><path fill-rule="evenodd" d="M264.5 3.1c60.4 0 117 8.7 146.5 66.7 26.4 65 17 135.1 21.1 203.8 3.4 59 11.1 127.1-16.2 181.8-28.8 57.5-100.8 72-160 69.8-46.6-1.6-102.8-16.8-129.1-59.4-30.8-49.9-16.2-124.1-14-179.6 2.6-65.7-17.8-131.7 3.8-196.1 22.4-66.7 82.9-81.8 147.9-87z" class="s2"/><path fill-rule="evenodd" d="M275.2 84.2c10.8 63 113.8 46.3 99-17.2-13.3-57-102.6-41.2-99 17.2z" style="fill:#fff;stroke:#000;stroke-linecap:round;stroke-width:2.9"/><path fill-rule="evenodd" d="M152.1 94.3c14 54.9 101.9 40.9 98.6-14.2-4-65.9-112-53.1-98.6 14.2z" style="fill:#fff;stroke:#000;stroke-linecap:round;stroke-width:2.8"/><path fill-rule="evenodd" d="M287.6 159.8c0 8.2 1.9 17.3.3 26.1-2.1 3.9-6.2 4.3-9.7 5.9-4.9-.7-9-3.9-11-8.5-1.2-10 .5-19.6.8-29.5z" class="s7"/><path d="M176.3 101.5c-8.2 0-14.8-7.2-14.8-16.1 0-8.9 6.6-16.1 14.8-16.1 8.2 0 14.9 7.2 14.9 16.1 0 8.9-6.7 16.1-14.9 16.1" class="s4"/><path d="M183.1 93.1c-2 0-3.5-1.8-3.5-4.1 0-2.2 1.5-4.1 3.5-4.1 1.9 0 3.5 1.9 3.5 4.1 0 2.3-1.6 4.1-3.5 4.1" class="s8"/><path d="M300.6 97.5c-8.1 0-14.6-7.2-14.6-16.1 0-8.9 6.5-16.1 14.6-16.1 8 0 14.6 7.2 14.6 16.1 0 8.9-6.6 16.1-14.6 16.1" class="s4"/><path d="M307.2 89.1c-1.9 0-3.4-1.8-3.4-4.1 0-2.2 1.5-4.1 3.4-4.1s3.4 1.9 3.4 4.1c0 2.3-1.5 4.1-3.4 4.1" class="s8"/><path fill-rule="evenodd" d="M245.2 158.9c-6.5 15.7 3.6 47 21.2 23.9-1.3-10 .4-19.6.8-29.5z" class="s7"/><path fill-rule="evenodd" d="M247.4 128.7c-12 1-21.9 15.3-15.6 26.7 8.3 15 26.8-1.3 38.4.2 13.2.3 24.1 14 34.8 2.5 11.9-12.9-5.1-25.4-18.4-31z" style="fill:#f6d2a2;stroke:#231f20;stroke-linecap:round;stroke-width:3"/><path fill-rule="evenodd" d="M245.9 128c-.9-20.8 39-23.5 43.7-6 4.6 17.5-41.7 21.5-43.7 6-1.6-12.3 0 0 0 0" class="s4"/></svg>