<svg version="1.2" xmlns="http://www.w3.org/2000/svg" viewBox="0 0 98 98"><defs><linearGradient id="P" gradientUnits="userSpaceOnUse"/><linearGradient id="g1" x2="1" href="#P" gradientTransform="matrix(47.78,-2.43,3.051,60,7.16,55.21)"><stop offset=".09" stop-color="#fc801d"/><stop offset=".23" stop-color="#b07f61"/><stop offset=".41" stop-color="#577db3"/><stop offset=".53" stop-color="#1e7ce6"/><stop offset=".59" stop-color="#087cfa"/></linearGradient><linearGradient id="g2" x2="1" href="#P" gradientTransform="matrix(-15.93,-47.6,39.578,-13.245,85.05,50.12)"><stop stop-color="#fe2857"/><stop offset=".08" stop-color="#cb3979"/><stop offset=".16" stop-color="#9e4997"/><stop offset=".25" stop-color="#7557b2"/><stop offset=".34" stop-color="#5362c8"/><stop offset=".44" stop-color="#386cda"/><stop offset=".54" stop-color="#2373e8"/><stop offset=".66" stop-color="#1478f2"/><stop offset=".79" stop-color="#0b7bf8"/><stop offset="1" stop-color="#087cfa"/></linearGradient><linearGradient id="g3" x2="1" href="#P" gradientTransform="matrix(60.08,99.38,-102.704,62.09,14.72,22.61)"><stop stop-color="#fe2857"/><stop offset=".08" stop-color="#fe295f"/><stop offset=".21" stop-color="#ff2d76"/><stop offset=".3" stop-color="#ff318c"/><stop offset=".38" stop-color="#ea3896"/><stop offset=".55" stop-color="#b248ae"/><stop offset=".79" stop-color="#5a63d6"/><stop offset="1" stop-color="#087cfa"/></linearGradient></defs><style>.a{fill:url(#g1)}.b{fill:#087cfa}.c{fill:url(#g2)}.d{fill:url(#g3)}.e{fill:#fff}</style><path class="a" d="m15.3 68.2l-14.2-11.1 8.4-15.4 12.5 4.1z"/><path class="b" d="m96.1 26.1l-1.8 55.6-36.9 14.8-20.2-13z"/><path class="c" d="m96.1 26.1l-18.3 17.8-23.5-28.8 11.6-13z"/><path class="d" d="m37.2 83.5l-29.4 10.6 6.2-21.5 7.9-26.8-21.8-7.3 13.9-38 31.4 3.7 32.4 39.7z"/><path  d="m18.5 18.5h60v60h-60z"/><path class="e" d="m26 67.2h22.5v3.7h-22.5z"/><path class="e" d="m37.2 30.1v-4.1h-11.2v4.1h3.2v14.2h-3.2v4.1h11.2v-4.1h-3.1v-14.2z"/><path class="e" d="m47.9 48.7q-0.5 0-1.1 0-0.6-0.1-1.1-0.2-0.6-0.1-1.1-0.3-0.5-0.2-1.1-0.5-0.4-0.2-0.8-0.5-0.4-0.2-0.7-0.5-0.4-0.3-0.7-0.7-0.4-0.3-0.7-0.7l3.1-3.4q0.2 0.2 0.5 0.5 0.2 0.2 0.4 0.4 0.3 0.2 0.5 0.4 0.3 0.2 0.6 0.3 0.2 0.2 0.5 0.3 0.2 0.1 0.5 0.2 0.3 0.1 0.5 0.1 0.3 0 0.6 0 0.3 0 0.6 0 0.3-0.1 0.6-0.2 0.3-0.1 0.5-0.3 0.3-0.1 0.5-0.3 0.2-0.3 0.4-0.7 0.2-0.3 0.3-0.7 0.1-0.3 0.1-0.7 0-0.4 0-0.8v-14.4h5v14.7q0 0.4 0 0.8-0.1 0.5-0.1 0.9-0.1 0.5-0.2 0.9-0.1 0.4-0.3 0.8-0.2 0.7-0.6 1.4-0.4 0.6-0.9 1.1-0.6 0.5-1.2 0.9-0.6 0.4-1.3 0.6-0.4 0.2-0.8 0.3-0.4 0.1-0.9 0.1-0.4 0.1-0.8 0.1-0.4 0.1-0.8 0.1"/></svg>
