<svg xmlns="http://www.w3.org/2000/svg" version="1.2" viewBox="0 0 98 98">
  <defs>
    <linearGradient id="P" gradientUnits="userSpaceOnUse"/>
    <linearGradient id="g1" x2="1" gradientTransform="matrix(47.78 -2.43 3.051 60 7.16 55.21)" href="#P">
      <stop offset=".09" stop-color="#fc801d"/>
      <stop offset=".23" stop-color="#b07f61"/>
      <stop offset=".41" stop-color="#577db3"/>
      <stop offset=".53" stop-color="#1e7ce6"/>
      <stop offset=".59" stop-color="#087cfa"/>
    </linearGradient>
    <linearGradient id="g2" x2="1" gradientTransform="matrix(-15.93 -47.6 39.578 -13.245 85.05 50.12)" href="#P">
      <stop stop-color="#fe2857"/>
      <stop offset=".08" stop-color="#cb3979"/>
      <stop offset=".16" stop-color="#9e4997"/>
      <stop offset=".25" stop-color="#7557b2"/>
      <stop offset=".34" stop-color="#5362c8"/>
      <stop offset=".44" stop-color="#386cda"/>
      <stop offset=".54" stop-color="#2373e8"/>
      <stop offset=".66" stop-color="#1478f2"/>
      <stop offset=".79" stop-color="#0b7bf8"/>
      <stop offset="1" stop-color="#087cfa"/>
    </linearGradient>
    <linearGradient id="g3" x2="1" gradientTransform="matrix(60.08 99.38 -102.704 62.09 14.72 22.61)" href="#P">
      <stop stop-color="#fe2857"/>
      <stop offset=".08" stop-color="#fe295f"/>
      <stop offset=".21" stop-color="#ff2d76"/>
      <stop offset=".3" stop-color="#ff318c"/>
      <stop offset=".38" stop-color="#ea3896"/>
      <stop offset=".55" stop-color="#b248ae"/>
      <stop offset=".79" stop-color="#5a63d6"/>
      <stop offset="1" stop-color="#087cfa"/>
    </linearGradient>
  </defs>
  <style>
    .e{fill:#fff}
  </style>
  <path d="M15.3 68.2 1.1 57.1l8.4-15.4L22 45.8z" style="fill:url(#g1)"/>
  <path d="m96.1 26.1-1.8 55.6-36.9 14.8-20.2-13z" style="fill:#087cfa"/>
  <path d="M96.1 26.1 77.8 43.9 54.3 15.1l11.6-13z" style="fill:url(#g2)"/>
  <path d="M37.2 83.5 7.8 94.1 14 72.6l7.9-26.8L.1 38.5 14 .5l31.4 3.7 32.4 39.7z" style="fill:url(#g3)"/>
  <path d="M18.5 18.5h60v60h-60z"/>
  <path d="M26 67.2h22.5v3.7H26zM37.2 30.1V26H26v4.1h3.2v14.2H26v4.1h11.2v-4.1h-3.1V30.1zM47.9 48.7h-1.1q-.6-.1-1.1-.2-.6-.1-1.1-.3-.5-.2-1.1-.5-.4-.2-.8-.5-.4-.2-.7-.5-.4-.3-.7-.7-.4-.3-.7-.7l3.1-3.4.5.5.4.4q.3.2.5.4.3.2.6.3.2.2.5.3.2.1.5.2t.5.1h1.2l.6-.2q.3-.1.5-.3.3-.1.5-.3.2-.3.4-.7.2-.3.3-.7.1-.3.1-.7V26h5v15.5q-.1.5-.1.9-.1.5-.2.9t-.3.8q-.2.7-.6 1.4-.4.6-.9 1.1-.6.5-1.2.9t-1.3.6q-.4.2-.8.3-.4.1-.9.1-.4.1-.8.1-.4.1-.8.1" class="e"/>
</svg>
