<svg xmlns="http://www.w3.org/2000/svg" version="1.2" viewBox="0 0 380 380"><style>.a{fill:#5382a1}.b{fill:#f8981d}</style><path d="M139.7 291.3s-14.2 8.3 10.1 11.1c29.4 3.3 44.4 2.8 76.8-3.3 0 0 8.5 5.3 20.4 10-72.6 31.1-164.4-1.8-107.3-17.8m-8.9-40.6s-15.9 11.8 8.4 14.3c31.4 3.2 56.2 3.5 99.1-4.8 0 0 6 6 15.3 9.3-87.8 25.7-185.6 2.1-122.8-18.8" class="a"/><path d="M205.6 181.8c17.9 20.6-4.7 39.1-4.7 39.1s45.5-23.4 24.6-52.8c-19.5-27.4-34.4-41 46.5-87.9 0 0-127 31.7-66.4 101.6" class="b"/><path d="M301.7 321.4s10.5 8.6-11.6 15.3c-41.9 12.7-174.5 16.5-211.3.5-13.2-5.8 11.6-13.7 19.4-15.4 8.2-1.8 12.8-1.5 12.8-1.5-14.7-10.3-95.1 20.4-40.8 29.2 148 24 269.9-10.8 231.5-28.1M146.5 208.6s-67.4 16-23.9 21.8c18.4 2.5 55.1 2 89.2-.9 27.9-2.4 55.9-7.4 55.9-7.4s-9.8 4.2-16.9 9.1c-68.5 18-200.8 9.6-162.7-8.8 32.2-15.5 58.4-13.8 58.4-13.8m121 67.6c69.6-36.1 37.4-70.9 14.9-66.2-5.5 1.1-7.9 2.1-7.9 2.1s2-3.2 5.9-4.6c44.5-15.6 78.6 46.1-14.3 70.6 0 0 1-1 1.4-1.9" class="a"/><path d="M225.5 4.4S264 43 188.9 102.3c-60.2 47.5-13.7 74.7 0 105.6-35.2-31.7-61-59.6-43.6-85.6C170.7 84.2 241 65.7 225.5 4.4" class="b"/><path d="M153.3 374.2c66.9 4.3 169.5-2.3 171.9-33.9 0 0-4.7 11.9-55.2 21.5-57.1 10.7-127.4 9.4-169.1 2.6 0 0 8.5 7 52.4 9.8" class="a"/></svg>