<svg xmlns="http://www.w3.org/2000/svg" version="1.2" viewBox="0 0 480 480">
  <path d="M240 475C110 475 5 370 5 240S110 5 240 5s235 105 235 235-105 235-235 235z" style="fill:#fff"/>
  <path fill-rule="evenodd" d="M407 73.3c92.1 92.2 92 241.6-.3 333.7-92.2 92.1-241.6 92-333.7-.2-92.1-92.3-92-241.7.3-333.8 8.2-8.2 16.9-15.8 26.2-22.6C145.7 25.5 203 34.9 240.1 72.1c46.4 46.4 46.3 121.6-.1 167.9-45.9 45.9-46 120.3-.1 166.2 45.8 45.9 120.2 46 166.1.1 91.9-91.7 92-240.5.3-332.3C361.2 28.8 301.8 5.5 241.8 5 197 4.7 151.6 16.2 112 41.7 149.7 17.4 194 4.1 239.6 4c62.8-.1 123 24.8 167.4 69.3zM112 41.7q-6.4 4.2-12.5 8.7 6.1-4.6 12.5-8.7zm51 343.6h40c-78.2-86-24.9-152.7 24-250h-40c-22 35.2-39.3 75.1-55.2 116.4-15.6-37-30.9-74.3-40.8-116.4H51c29.6 102.3 64.4 172.7 112 250z" style="stroke:#000;stroke-width:5"/>
  <path d="M277 94.7c78.2 86 24.9 152.7-24 250h40c22-35.2 39.4-75.1 55.3-116.4 15.5 37 30.8 74.3 40.7 116.4h40c-29.6-102.3-64.4-172.7-112-250z"/>
</svg>
