<svg version="1.2" xmlns="http://www.w3.org/2000/svg" viewBox="0 0 320 86"><defs><linearGradient id="P" gradientUnits="userSpaceOnUse"/><linearGradient id="g1" x2="1" href="#P" gradientTransform="matrix(8.534,-10.85,9.822,7.725,158.196,24.519)"><stop stop-color="#f69923"/><stop offset=".31" stop-color="#f79a23"/><stop offset=".84" stop-color="#e97826"/></linearGradient><linearGradient id="g2" x2="1" href="#P" gradientTransform="matrix(-12.517,-62.77,21.339,-4.255,170.045,89.861)"><stop offset=".32" stop-color="#9e2064"/><stop offset=".63" stop-color="#c92037"/><stop offset=".75" stop-color="#cd2335"/><stop offset="1" stop-color="#e97826"/></linearGradient><linearGradient id="g3" x2="1" href="#P" gradientTransform="matrix(-7.459,-37.405,19.777,-3.944,174.83,81.028)"><stop stop-color="#282662"/><stop offset=".1" stop-color="#662e8d"/><stop offset=".79" stop-color="#9f2064"/><stop offset=".95" stop-color="#cd2032"/></linearGradient><linearGradient id="g4" x2="1" href="#P" gradientTransform="matrix(-12.517,-62.771,12.748,-2.542,168.757,86.452)"><stop offset=".32" stop-color="#9e2064"/><stop offset=".63" stop-color="#c92037"/><stop offset=".75" stop-color="#cd2335"/><stop offset="1" stop-color="#e97826"/></linearGradient><linearGradient id="g5" x2="1" href="#P" gradientTransform="matrix(-6.578,-32.988,10.898,-2.173,168.693,81.705)"><stop stop-color="#282662"/><stop offset=".1" stop-color="#662e8d"/><stop offset=".79" stop-color="#9f2064"/><stop offset=".95" stop-color="#cd2032"/></linearGradient><linearGradient id="g6" x2="1" href="#P" gradientTransform="matrix(-12.517,-62.771,17.465,-3.483,175.254,85.157)"><stop offset=".32" stop-color="#9e2064"/><stop offset=".63" stop-color="#c92037"/><stop offset=".75" stop-color="#cd2335"/><stop offset="1" stop-color="#e97826"/></linearGradient><linearGradient id="g7" x2="1" href="#P" gradientTransform="matrix(-12.517,-62.77,27.167,-5.417,175.707,89.115)"><stop offset=".32" stop-color="#9e2064"/><stop offset=".63" stop-color="#c92037"/><stop offset=".75" stop-color="#cd2335"/><stop offset="1" stop-color="#e97826"/></linearGradient><linearGradient id="g8" x2="1" href="#P" gradientTransform="matrix(-12.517,-62.771,94.04,-18.752,177.186,84.771)"><stop offset=".32" stop-color="#9e2064"/><stop offset=".63" stop-color="#c92037"/><stop offset=".75" stop-color="#cd2335"/><stop offset="1" stop-color="#e97826"/></linearGradient><linearGradient id="g9" x2="1" href="#P" gradientTransform="matrix(-12.517,-62.771,314.788,-62.771,176.965,84.815)"><stop offset=".32" stop-color="#9e2064"/><stop offset=".63" stop-color="#c92037"/><stop offset=".75" stop-color="#cd2335"/><stop offset="1" stop-color="#e97826"/></linearGradient><linearGradient id="g10" x2="1" href="#P" gradientTransform="matrix(NaN,NaN,NaN,NaN,NaN,NaN)"><stop offset=".32" stop-color="#9e2064"/><stop offset=".63" stop-color="#c92037"/><stop offset=".75" stop-color="#cd2335"/><stop offset="1" stop-color="#e97826"/></linearGradient><linearGradient id="g11" x2="1" href="#P" gradientTransform="matrix(15.49,-1.954,1.766,14.002,199.013,24.656)"><stop stop-color="#f69923"/><stop offset=".31" stop-color="#f79a23"/><stop offset=".84" stop-color="#e97826"/></linearGradient><linearGradient id="g12" x2="1" href="#P" gradientTransform="matrix(39.796,-60.476,20.473,13.472,156.636,86.671)"><stop offset=".32" stop-color="#9e2064"/><stop offset=".63" stop-color="#c92037"/><stop offset=".75" stop-color="#cd2335"/><stop offset="1" stop-color="#e97826"/></linearGradient><linearGradient id="g13" x2="1" href="#P" gradientTransform="matrix(23.715,-36.038,18.845,12.401,167.505,83.362)"><stop stop-color="#282662"/><stop offset=".1" stop-color="#662e8d"/><stop offset=".79" stop-color="#9f2064"/><stop offset=".95" stop-color="#cd2032"/></linearGradient><linearGradient id="g14" x2="1" href="#P" gradientTransform="matrix(39.796,-60.476,12.314,8.103,158.307,82.904)"><stop offset=".32" stop-color="#9e2064"/><stop offset=".63" stop-color="#c92037"/><stop offset=".75" stop-color="#cd2335"/><stop offset="1" stop-color="#e97826"/></linearGradient><linearGradient id="g15" x2="1" href="#P" gradientTransform="matrix(20.914,-31.782,10.58,6.962,162.028,79.031)"><stop stop-color="#282662"/><stop offset=".1" stop-color="#662e8d"/><stop offset=".79" stop-color="#9f2064"/><stop offset=".95" stop-color="#cd2032"/></linearGradient><linearGradient id="g16" x2="1" href="#P" gradientTransform="matrix(39.796,-60.476,16.762,11.03,164.567,87.022)"><stop offset=".32" stop-color="#9e2064"/><stop offset=".63" stop-color="#c92037"/><stop offset=".75" stop-color="#cd2335"/><stop offset="1" stop-color="#e97826"/></linearGradient><linearGradient id="g17" x2="1" href="#P" gradientTransform="matrix(39.796,-60.476,25.877,17.028,161.787,90.569)"><stop offset=".32" stop-color="#9e2064"/><stop offset=".63" stop-color="#c92037"/><stop offset=".75" stop-color="#cd2335"/><stop offset="1" stop-color="#e97826"/></linearGradient><linearGradient id="g18" x2="1" href="#P" gradientTransform="matrix(39.796,-60.476,91.902,60.476,166.428,88.247)"><stop offset=".32" stop-color="#9e2064"/><stop offset=".63" stop-color="#c92037"/><stop offset=".75" stop-color="#cd2335"/><stop offset="1" stop-color="#e97826"/></linearGradient><linearGradient id="g19" x2="1" href="#P" gradientTransform="matrix(39.796,-60.476,91.902,60.476,166.215,88.107)"><stop offset=".32" stop-color="#9e2064"/><stop offset=".63" stop-color="#c92037"/><stop offset=".75" stop-color="#cd2335"/><stop offset="1" stop-color="#e97826"/></linearGradient><linearGradient id="g20" x2="1" href="#P" gradientTransform="matrix(NaN,NaN,NaN,NaN,NaN,NaN)"><stop offset=".32" stop-color="#9e2064"/><stop offset=".63" stop-color="#c92037"/><stop offset=".75" stop-color="#cd2335"/><stop offset="1" stop-color="#e97826"/></linearGradient></defs><style>.a{fill:#fff}.b{opacity:0;fill:#fff}.c{fill:url(#g1)}.d{fill:none}.e{fill:#be202e}.f{opacity:.3;fill:#be202e}.g{fill:url(#g2)}.h{fill:url(#g3)}.i{fill:url(#g4)}.j{fill:url(#g5)}.k{fill:url(#g6)}.l{fill:url(#g7)}.m{fill:url(#g8)}.n{fill:url(#g9)}.o{fill:url(#g10)}.p{fill:url(#g11)}.q{fill:url(#g12)}.r{fill:url(#g13)}.s{fill:url(#g14)}.t{fill:url(#g15)}.u{fill:url(#g16)}.v{fill:url(#g17)}.w{fill:url(#g18)}.x{fill:url(#g19)}.y{fill:url(#g20)}</style><path class="a" d="m21.5 1.7h13.1q1.6 0 3.2 0 1.7 0 2.4 0.7 0.6 0.5 0.7 1.5 0.1 0.9 0.3 1.8 0.2 1.6 0.4 3.3 0.3 1.6 0.5 3.3 1.1 6.3 1.8 12.8 0.8 6.5 1.9 12.9 0.4 2 0.6 4.1 0.2 2.1 0.6 4.1 0.1 0.5 0.2 1 0.1 0.5 0.5 0.8 0.2 0.1 0.3 0.2 0.2 0.1 0.5-0.1 0.8-0.2 1.3-1.2 0.5-1 1-1.8 1.2-2.3 2.3-4.5 1.1-2.3 2.4-4.6 3.2-6.1 6.4-12.2 3.3-6.2 6.5-12.4 0.8-1.6 1.6-3.1 0.9-1.6 1.7-3.2 0.4-0.8 0.9-1.6 0.5-0.8 1.4-1.3 0.7-0.5 1.6-0.5 1 0 2 0h6.5 6.9q0.9 0 1.8 0 1 0 1.4 0.4 1 0.6 0.6 2.3-0.3 1.6-0.6 3.3l-3 15-7.5 37.2-1.7 8.7q-0.2 1.1-0.5 2.2-0.3 1-1 1.5-0.7 0.5-1.6 0.6-0.9 0-2 0h-4.8-2.7q-0.7-0.2-1.3-0.3-0.5-0.1-0.8-0.7-0.3-0.5-0.2-1.3 0.2-0.8 0.4-1.7l1-5.1 5.2-25.7q0.2-1.4 0.4-2.6 0.3-1.3 0.5-2.6 0.2-0.8 0.4-1.6 0.2-0.9 0.2-1.7-0.1-0.7 0-1.5 0.2-0.8-0.3-1-0.3-0.1-0.5 0.1-0.2 0.2-0.3 0.3-0.5 0.4-0.9 1-0.3 0.5-0.6 1-0.9 1.5-1.8 3.1-0.8 1.6-1.8 3.2-0.3 0.6-0.6 1.2-0.2 0.6-0.6 1.2-0.8 1.3-1.5 2.6-0.6 1.3-1.4 2.6-0.2 0.3-0.3 0.7-0.1 0.3-0.3 0.6-0.6 0.9-1.1 1.9-0.4 1-1.1 2-0.6 0.9-1.1 1.9-0.4 1-1 2-1.8 2.9-3.3 5.9-1.5 2.9-3.1 5.8-0.3 0.3-0.4 0.6 0 0.3-0.3 0.6-0.7 1.1-1.3 2.3-0.5 1.1-1.2 2.2-0.4 0.7-0.8 1.3-0.4 0.6-0.9 1-0.6 0.4-1.1 0.5-0.5 0-1.3 0.2h-2.3q-0.7 0-1.7 0.1-0.9 0-1.9 0-0.9 0-1.7-0.1-0.8-0.1-1.1-0.4-0.7-0.5-0.9-1.1-0.1-0.7-0.4-1.6-0.2-1.2-0.3-2.4-0.1-1.3-0.4-2.5l-0.1-0.9q-0.3-1.2-0.4-2.5-0.1-1.4-0.4-2.6 0-0.3 0-0.5 0-0.3-0.1-0.6-0.3-0.9-0.4-1.9-0.1-1-0.3-2 0-0.2 0-0.5 0-0.3-0.1-0.5-0.2-1-0.3-2 0-1-0.3-2-0.4-2-0.7-4.2-0.2-2.2-0.6-4.3-0.4-2.5-0.7-5.1-0.2-2.6-0.9-5-0.2-1.4-0.6-2.3-0.2-0.2-0.4-0.3-0.1-0.2-0.4 0-0.6 0.3-0.8 1-0.1 0.7-0.4 1.4-0.4 0.7-0.5 1.5-0.1 0.7-0.2 1.5-0.2 1.1-0.5 2.2-0.2 1.1-0.5 2.2l-5.3 26.6-1 4.9q-0.2 0.8-0.4 1.6-0.1 0.8-0.6 1.3-0.5 0.7-1.7 0.9-0.7 0.2-1.5 0.2-0.8-0.1-1.6-0.1h-5.2q-1.1 0-2 0-0.9-0.1-1.4-0.6-0.5-0.5-0.4-1.5 0.2-1.1 0.4-2.2l1.7-8.8 7.5-37.2 2.8-14q0.1-0.6 0.2-1.4 0.2-0.9 0.4-1.7 0.2-0.8 0.4-1.5 0.3-0.8 0.5-1.2 0.6-0.7 1.8-1 0.3-0.1 0.4 0 0.2 0 0.5-0.1z"/><path fill-rule="evenodd" class="a" d="m141.1 69q0 1.1-0.2 2.2-0.2 1.1-1.3 1.5-0.7 0.3-1.5 0.3-0.8 0-1.6 0c-0.6 0-6.6 0-7.2 0q-0.8-0.1-1.2-0.5-0.6-0.4-0.8-1.1-0.2-0.8-0.7-1.3-0.2-0.2-0.5-0.3-0.2-0.2-0.7-0.1-0.6 0.2-1.1 0.5-0.5 0.3-1 0.5-0.6 0.4-1.3 0.7-0.6 0.3-1.3 0.6-1.4 0.6-2.9 1-1.5 0.3-3 0.7-0.8 0.2-1.5 0.2-0.6 0.1-1.3 0.2-0.3 0-0.6 0-0.3 0.1-0.6 0.1h-1.1q-1.1 0.2-2 0h-0.9q-0.7-0.2-1.4-0.2-0.6 0.1-1.2-0.1-0.9-0.2-1.8-0.4-0.9-0.1-1.6-0.5-2.7-1.1-4.4-2.8-1.7-1.8-2.3-4.7-0.2-0.7-0.3-1.5 0-0.8-0.1-1.7-0.1-0.5 0-1 0.2-0.5 0.2-1 0-0.3 0.1-1.2 0.2-1 0.4-1.4 0.4-1 0.5-1.7 0.5-1.1 1-2.2 0.6-1.2 1.3-2.1 2.2-2.9 4.7-4.4 2.5-1.5 6.2-2.6 1.4-0.5 2.8-0.7 1.4-0.2 2.9-0.5 0.8-0.2 1.7-0.2 1-0.1 1.9-0.3 0.7-0.2 1.4-0.1 0.7 0 1.6-0.2 0.7-0.2 1.4-0.2 0.7 0 1.5-0.2 2.2-0.5 4-0.8 1.9-0.4 3.6-1.8 1-0.9 1.6-2 0.1-0.3 0.1-0.5 0-0.2 0.1-0.4 0.2-0.2 0.2-0.6 0.1-0.4 0.2-0.6 0-0.4 0-0.8 0-0.4 0-0.7-0.4-3-3.4-4.1-0.8-0.3-2.1-0.4-1.2-0.2-2.5-0.1-1.3 0-2.6 0.2-1.2 0.2-2.1 0.5-0.7 0.2-1.3 0.6-0.6 0.3-1.2 0.7-0.6 0.4-1.3 1.1-0.7 0.7-1 1.3-0.7 1-1.2 1.9-0.5 0.9-1.7 1.2-0.8 0.2-1.7 0.2-0.9 0-1.8 0h-3.8q-0.5 0-1.1 0.1-0.5 0-0.8-0.1h-0.9q-0.2-0.1-0.5-0.1-0.3 0-0.5-0.2-0.7-0.2-0.8-1.3 0-0.5 0.2-1 0.2-0.5 0.4-0.9 0.5-1.1 1-2 0.6-1 1.2-1.8 0.4-0.5 0.8-1 0.4-0.5 0.8-1 1-1.1 2.4-2.1 0.3-0.1 0.7-0.5 0.6-0.4 1-0.7 0.5-0.3 1.1-0.6 1.9-1.1 3.9-1.7 2.1-0.7 4.2-1.3 1.3-0.3 2.6-0.4 1.3-0.1 2.7-0.4 0.4-0.1 1.2 0 0.8 0.1 1.1-0.1 4.1-0.1 7.7 0.3 3.7 0.4 6.5 1.5 2.9 1.1 4.7 3 1.9 1.8 2.5 4.7 0.3 1.7 0 3.9-0.3 2.2-0.8 4.5l-4.5 22.3q-0.3 1.9-0.7 3.9-0.4 1.9-0.3 3.5 0 0.3-0.1 0.7 0 0.3 0 0.6zm-11.6-15.4q0.2-0.5 0.3-1.1 0.1-0.7 0.1-1.2 0-0.6 0.1-1.1 0.1-0.5-0.3-0.8-0.4-0.4-1.4-0.4-0.4 0.1-0.7 0.2-0.3 0-0.8 0.1-0.7 0.2-1.5 0.3-0.8 0.1-1.7 0.3-0.3 0.1-0.9 0.1-1.4 0.3-2.7 0.4-1.3 0.1-2.6 0.5-0.8 0.2-1.6 0.4-0.7 0.1-1.4 0.4-2.3 0.9-4.1 2.7-1.8 1.8-2.1 5-0.1 1.7 0.6 2.8 0.4 1.1 1.7 1.8 1.3 0.6 2.9 0.9 1.6 0.3 3.4 0.2 1.9-0.2 3.6-0.7 2.8-0.8 4.6-2.5 1.9-1.8 3.2-4.4 0.3-0.7 0.5-1.4 0.2-0.8 0.6-1.6z"/><path class="b" d="m159.3 21.4h7.3q1.1 0 2.1 0.1 1 0 1.6 0.4 1 0.7 1 2.6 0.1 1.8 0.4 3.2 0.4 3.3 0.7 6.8 0.3 3.4 0.7 6.8 0.4 2.4 0.6 4.9 0.2 2.5 0.6 4.8 0.1 0.9 0.2 1.9 0.2 1 1.3 1 0.3-0.2 0.4-0.2 0.1-0.1 0.3-0.3 0.4-0.5 0.7-1 0.3-0.5 0.6-1.1 0.8-1.1 1.2-2.3 0.5-1.2 1.2-2.3 2.2-4.2 4.3-8.4 2.1-4.3 4.3-8.5 0.8-1.2 1.3-2.4 0.6-1.3 1.2-2.4 0.4-0.8 0.8-1.6 0.5-0.8 1.2-1.3 0.3-0.2 1.4-0.6 0.6-0.2 1.3-0.1 0.7 0 1.3 0h4.9q1.1 0 2 0.1 1 0 1.4 0.5 0.5 0.5 0.1 1.5-0.3 0.9-0.6 1.5-0.8 1.4-1.6 3-0.8 1.5-1.6 2.9-0.4 0.7-0.7 1.4-0.3 0.6-0.6 1.2-0.7 1.1-1.3 2.2-0.6 1.1-1.2 2.2-0.1 0.3-0.3 0.7-0.1 0.3-0.3 0.6-0.9 1.5-1.7 3.1-0.8 1.5-1.6 3-1.7 3-3.3 6.2-1.6 3.1-3.4 6.1-0.8 1.4-1.5 2.8-0.6 1.3-1.4 2.7-0.3 0.5-0.5 0.9-0.2 0.3-0.5 0.8-0.6 1.1-1.2 2.3-0.5 1.1-1.2 2.2-0.7 1.1-1.3 2.1-0.6 0.9-1.7 1.3-0.9 0.3-1.8 0.3-0.9-0.1-1.8-0.1h-6.5q-1.1 0-2.2 0-1 0-1.7-0.4-0.6-0.5-0.8-1.2-0.1-0.8-0.2-1.7-0.3-1.2-0.5-2.5-0.1-1.3-0.3-2.5-0.1-0.4-0.1-0.7 0-0.4-0.1-0.9-0.3-1.2-0.4-2.5-0.1-1.3-0.4-2.6-0.1-0.5-0.1-0.9 0-0.5-0.1-1-0.2-0.9-0.3-1.8-0.1-1-0.3-1.9-0.1-0.3-0.1-0.6 0.1-0.4 0-0.7-0.2-0.9-0.3-1.8-0.1-0.9-0.3-1.9-0.4-2.3-0.7-4.7-0.3-2.5-0.6-4.9-0.6-2.7-0.9-5.4-0.2-2.8-0.7-5.5l-0.3-2.7q-0.1-0.3-0.1-0.7 0.1-0.5 0.4-0.9 0.4-0.7 1.6-1 0.5 0 0.7-0.1z"/><path fill-rule="evenodd" class="a" d="m257 46.7q0 0.8-0.4 1.8-0.4 1-1 1.3-0.5 0.4-1.5 0.6-1 0.1-2.2 0.2-1.1 0-2.3 0-1.1-0.1-2-0.1c-0.4 0-25.3 0-25.8 0q-0.6 0-1.1 0.2-0.9 0.4-1.2 0.8-0.2 0.2-0.6 0.8-0.3 0.5-0.3 1 0.1 0.6 0 1.2 0 0.5 0.1 1.1 0.3 2.4 1.1 4 0.9 1.5 2.6 2.7 0.7 0.5 1.5 0.7 0.9 0.1 1.7 0.4 0.8 0.2 2.1 0.3 1.4 0.1 2.5-0.1h0.9q1-0.2 1.9-0.4 0.9-0.3 1.8-0.6 1.1-0.5 2.5-1.3 1.4-0.8 2.2-1.6 0.6-0.7 1.3-1.3 0.7-0.7 1.5-1 1.1-0.5 2.6-0.4 1.6 0 2.9 0 0.6 0 1.2 0 0.7-0.1 1.2 0.1h1q0.9 0.2 1.3 0.5 0.3 0.2 0.2 0.9 0 0.7-0.3 1.2-0.8 1.4-1.7 2.5-0.8 1.1-1.8 2.2-2.8 3.3-6 5.3-3.2 2-7.7 3.4-1.2 0.4-2.3 0.5-1.1 0.1-2.4 0.4-0.4 0.1-0.9 0-0.4 0-0.8 0.1h-1.1q-0.6 0.2-1.2 0.1-0.6 0-1.1-0.1-0.8-0.1-1.4 0-0.6 0.1-1.3-0.1-0.5-0.2-1.1-0.2-0.6 0-1-0.2-1.1-0.2-2.2-0.5-1-0.2-1.8-0.7-1-0.4-1.9-0.7-0.9-0.4-1.6-0.9-2.8-2-4.8-4.6-1.9-2.7-2.8-6.2-0.3-1.1-0.4-2.2 0-1.2-0.3-2.4 0-0.4 0-0.7 0.1-0.4 0.1-0.8-0.1-1.2 0-2.6 0.2-1.4 0.4-2.8 0.1-0.5 0.1-1.1 0.1-0.6 0.3-1.1l0.3-1.2 0.8-2.4q0.7-1.7 1.3-3.3 0.6-1.6 1.5-3 6.4-10.4 17.6-14.7 1.5-0.6 3-0.8 1.5-0.3 3.2-0.7 0.8-0.1 1.5-0.1 0.7 0 1.5-0.1 5.1-0.1 8.5 1.2 3.4 1.2 5.9 3.2 0.8 0.6 1.5 1.4 0.8 0.7 1.3 1.5 0.2 0.5 0.7 0.8 0.6 1.1 1 2.3 0.5 1.1 1.1 2.3 0.3 0.9 0.4 1.9 0.2 0.9 0.4 2 0.2 1.3 0.2 2.7 0.1 1.4 0.2 2.8 0 0.8-0.3 1.8-0.2 0.9-0.1 1.7zm-13.9-5.9q0.9-1 0.6-2.4-0.2-1.5-0.3-2.2-0.9-2.7-2.9-4.1-2-1.5-6.1-1.6-0.3 0.2-0.7 0.1-0.4-0.1-0.7 0-0.6 0.2-1.2 0.3-0.6 0-1.1 0.2-4.7 1.4-7.6 5.5-0.3 0.4-0.7 1.1-0.4 0.6-0.6 1.3-0.2 0.6-0.2 1.2 0 0.6 0.5 1 0.7 0.5 2.1 0.5 1.4 0 2.7 0c1 0 13 0 14 0q1.6-0.1 2.2-0.9z"/><path class="a" d="m300.2 20.1q6-0.2 9.6 1.7 3.7 1.9 5.2 5.6 0.5 1.1 0.6 2.4 0.2 1.2 0.3 2.5 0.1 0.8 0 1.5-0.1 0.7 0 1.4-0.2 0.6-0.1 0.8-0.1 1.4-0.4 2.9-0.3 1.5-0.6 2.9l-1.7 8.9-3.3 16.2q-0.4 1.9-0.8 3.7-0.4 1.7-1.9 2.2-0.6 0.2-1.4 0.2-0.8 0-1.6 0h-5.4q-1.2 0-2.1-0.1-0.9-0.2-1.3-0.9-0.3-0.6-0.2-1.5 0.2-1 0.4-2.1l1.4-7 3-14.9q0.7-3.7 1-6.8 0.4-3.2-0.7-5.4-1-2-3.5-2.8-0.5-0.2-1.1-0.2-0.5 0-1-0.2-0.5-0.1-1.3 0-0.7 0-1.1 0.1-0.5 0.1-0.8 0.1-0.3 0-0.6 0.1-2.4 0.6-4 1.6-3.7 2.3-5.2 6.7-1.4 4.4-2.5 9.9l-2.5 12.5-1.2 6.1q-0.2 0.9-0.4 1.8-0.2 0.9-0.6 1.5-0.7 1.1-1.9 1.3-1.1 0.2-2.7 0.2h-5q-1.1 0-2.2-0.1-1.1-0.1-1.4-0.7-0.6-0.9-0.2-2.6 0.4-1.7 0.7-3.2l2.7-13.6 4.4-22 1.1-5.1q0.2-1.1 0.4-2 0.2-0.9 0.9-1.5 0.2-0.3 0.7-0.4 0.5-0.2 1-0.3h0.5q0.5-0.1 1-0.1 0.6 0 1.1 0h4.2q0.8 0 1.5 0.1 0.8 0 1.4 0.2 0.6 0.3 0.7 0.9 0.2 0.6 0.2 1.4 0 0.4-0.1 0.7-0.1 0.3 0 0.6 0.1 0.5 0.2 0.6 0.2 0.1 0.5 0.3 1 0.1 1.9-0.7 0.9-0.9 1.8-1.4 3.1-2 6.6-3.2 1-0.3 1.9-0.4 1-0.1 2.2-0.3 0.3-0.1 0.9 0 0.6 0 0.8-0.1z"/><path class="c" d="m157.7 18.6c-0.5 1.1-0.8 3.4-1 6.5l3.5 1.7q-0.1-3.4 0.2-6.2 0.1-0.2 0.1-0.2 0 0.1-0.1 0.2c0 0.6-0.2 2.6 0 6.1 1.5-1.2 3.6-3.2 5.2-4.9-1.7-3.5-3.9-4.1-3.9-4.1 0 0-3.1-1.3-4 0.9z"/><path fill-rule="evenodd" class="d" d="m166.8 36.2l-0.2 0.1q0 0.1 0 0.1 0.1-0.1 0.2-0.2z"/><path fill-rule="evenodd" class="d" d="m168.9 42.2q-0.2 0.2-0.3 0.4 0.1-0.2 0.3-0.4z"/><path fill-rule="evenodd" class="d" d="m166.9 60.8q0-0.1-0.1-0.2-0.4-1.6-0.8-3.2-0.5-1.7-0.9-3.4-0.4-1.7-0.8-3.4-0.4-1.7-0.8-3.3-0.3-1.3-0.5-2.6-0.1-0.4-0.2-0.8-0.1-0.8-0.3-1.6-0.1-0.7-0.3-1.4 0-0.2-0.1-0.4 0-0.1 0-0.1l-0.1 0.2-0.4-0.2q0 0 0 0.1 0.2 1 0.4 2.1 0.1 0.6 0.2 1.2 0.4 1.7 0.7 3.4 0.4 1.8 0.8 3.5 0.4 1.7 0.8 3.3 0.4 1.7 0.8 3.3 0.4 1.7 0.9 3.4 0.1 0.4 0.2 0.7 0.4 1.4 0.7 2.6l0.6 0.3 0.2-0.1q0-0.1 0-0.1-0.6-1.7-1-3.3z"/><path class="d" d=""/><path class="e" d="m169.8 45.4q-0.3 0.3-0.5 0.5 0.1-0.1 0.2-0.2 0.2-0.2 0.3-0.3z"/><path class="f" d="m169.8 45.4q-0.3 0.3-0.5 0.5 0.1-0.1 0.2-0.2 0.2-0.2 0.3-0.3z"/><path class="e" d="m168.5 42.6q0 0 0.1 0 0.1-0.2 0.3-0.4-0.2 0.2-0.4 0.4z"/><path class="f" d="m168.5 42.6q0 0 0.1 0 0.1-0.2 0.3-0.4-0.2 0.2-0.4 0.4z"/><path class="g" d="m161.1 37.1q-0.2-1.7-0.4-3.4-0.2-1.8-0.4-3.5 0-0.1 0-0.2-0.1-1.6-0.1-3.2l-3.5-1.7q0 0.3 0 0.7-0.1 1.2-0.1 2.6 0 1.6 0 3.3 0.1 1.6 0.1 3.3 0.1 1.4 0.2 2.9 0 0.1 0 0.1l4.7 2.4q-0.2-1.7-0.5-3.3z"/><path class="h" d="m168 64.7q0.4 1.3 0.8 2.6 0 0.1 0 0.1 0.1 0.2 0.1 0.4c0.2 0.6 0.4 1.1 0.8 2.4 0.7-0.2 1.7 0.1 2.7 0.6-0.7-0.8-1.5-1.3-2.6-1.4 2.9-1.9 4.7-4.3 4.5-7.3q-0.1-0.4-0.1-0.8c-0.1 1.2-0.5 2-1.9 2.9 1.3-2.3 1.6-3.9 1.5-5.8q-0.1-0.8-0.2-1.6c-0.4 3-2 4.9-4.3 6.1l-1.5 1.3q0.1 0.2 0.2 0.5z"/><path class="i" d="m166.2 60.7q-0.5-1.7-0.9-3.4-0.4-1.6-0.8-3.3-0.4-1.6-0.8-3.3-0.4-1.7-0.8-3.5-0.3-1.7-0.7-3.4-0.1-0.6-0.2-1.2-0.2-1-0.4-2.1 0-0.1 0-0.1l-4.6-2.4q0 0.1 0 0.2 0.1 1.6 0.3 3.2 0.2 1.7 0.4 3.3 0.2 1.4 0.4 2.8 0.1 0.3 0.1 0.6 0.4 1.7 0.7 3.3 0.5 1.7 0.9 3.3 0.3 1 0.6 1.9 0.3 0.8 0.6 1.6 0.6 1.8 1.4 3.5l4.7 2.4q-0.4-1.3-0.7-2.7-0.1-0.3-0.2-0.7z"/><path class="j" d="m162.5 61.8q1 2.1 2.2 4 0 0.1 0 0.1c-1.3-0.5-3.6-0.2-3.5-0.2 2.3 0.8 4.4 1.8 5.7 3.3-0.5 0.6-1.5 1-2.7 1.4 1.7 0.2 2.6-0.1 3-0.3-0.9 0.8-1.4 2.1-1.8 3.6 1-1.7 1.9-2.7 2.9-3.2 1.4 4.7 3.1 9.8 5 15.1 0.3-0.4 0.3-0.9 0.2-1.4-0.3-0.9-2.6-7.2-5.1-15.8q-0.1-0.3-0.2-0.7-0.1-0.1-0.1-0.2-0.4-1.4-0.8-2.8-0.1-0.3-0.2-0.6v-0.1l-4.7-2.3q0.1 0.1 0.1 0.1z"/><path class="k" d="m162.1 40.5q0.1 0.2 0.1 0.4 0.2 0.7 0.3 1.4 0.2 0.8 0.3 1.6 0.1 0.4 0.2 0.8 0.2 1.3 0.5 2.6 0.4 1.6 0.8 3.3 0.4 1.7 0.8 3.4 0.4 1.7 0.9 3.4 0.4 1.6 0.8 3.2 0.1 0.1 0.1 0.2 0.4 1.6 0.9 3.3 0 0 0 0.1l1.5-1.3q-0.1 0-0.1 0c1.6-1.6 3.1-4.7 3.4-7.6q0.2-2 0-4.3-0.2-1.7-0.7-3.6-0.4-1.7-1.1-3.6-0.4 0.8-1 1.6-0.2 0.1-0.3 0.3-0.1 0.1-0.3 0.2c1.3-1.9 1.4-3.9 1.1-6.1-0.3 0.6-0.7 1.6-1.4 2.4q-0.2 0.2-0.4 0.4 0.6-1 0.9-1.9 0-0.3 0.1-0.5 0-0.3 0.1-0.6 0-0.2 0-0.4 0.1-0.5 0-1 0-0.2 0-0.4 0-0.2-0.1-0.4-0.1-1-0.3-1.7-0.1-0.4-0.2-0.7-0.1-0.1-0.1-0.2-0.1-0.4-0.2-0.6-0.1-0.4-0.3-0.6 0 0.1-0.1 0.3c-0.3 0.6-0.9 1.6-1.5 2.2l1.3-1.1-1.3 1.1q-0.1 0.1-0.1 0.1-0.1 0.1-0.2 0.2 0 0 0.1-0.1l-4.5 4.1q0.1 0.1 0 0.1z"/><path class="l" d="m160.4 26.7q0.1 1.5 0.3 3.3 0 0.1 0 0.2 0.1 1.6 0.4 3.4 0.2 1.6 0.5 3.5 0.2 1.6 0.5 3.3l4.5-4.1c0.9-1.6 1.1-2.7 1.1-4q0-0.5 0-1.1c-0.1-1.1-0.2-2.3-0.4-3.5-0.2-1.1-0.4-2.2-0.7-3.2q-0.2-0.9-0.5-1.5-0.3-0.6-0.5-1.2c-1.6 1.7-3.7 3.7-5.2 4.9z"/><path class="e" d="m169.5 45.7q-0.1 0.1-0.2 0.2 0.1-0.1 0.2-0.2z"/><path class="f" d="m169.5 45.7q-0.1 0.1-0.2 0.2 0.1-0.1 0.2-0.2z"/><path class="m" d="m169.5 45.7q-0.1 0.1-0.2 0.2 0.1-0.1 0.2-0.2z"/><path class="e" d="m168.5 42.6q0 0 0.1 0-0.1 0-0.1 0z"/><path class="f" d="m168.5 42.6q0 0 0.1 0-0.1 0-0.1 0z"/><path class="n" d="m168.5 42.6q0 0 0.1 0-0.1 0-0.1 0z"/><path class="e" d=""/><path class="f" d=""/><path class="o" d=""/><path class="p" d="m203.3 19.5c-1.2 0.5-3.4 2.1-6 4.4l1.5 4.2c1.7-1.9 3.5-3.5 5.2-4.8q0.1-0.2 0.2-0.2-0.1 0.1-0.2 0.2c-0.6 0.4-2.3 1.9-4.9 4.9 2.1 0.2 5.3 0.2 8 0.2 1.4-4.3 0.2-6.5 0.2-6.5 0 0-1.5-3.4-4-2.4z"/><path fill-rule="evenodd" class="d" d="m196.6 40.8q0 0.1 0.1 0h-0.3q-0.1 0-0.1 0 0.2 0 0.3 0z"/><path fill-rule="evenodd" class="d" d="m193.6 47.4q-0.3 0-0.6 0 0.3 0 0.6 0z"/><path fill-rule="evenodd" class="d" d="m177.2 60.7q0 0 0.1-0.1 0.9-1.7 1.8-3.3 1-1.7 2-3.4 1-1.8 2-3.4 1.1-1.7 2.1-3.3 0.8-1.3 1.6-2.5 0.2-0.4 0.5-0.8 0.5-0.7 1-1.5 0.5-0.7 0.9-1.3 0.2-0.2 0.3-0.5 0 0 0.1 0h-0.3l-0.1-0.5q-0.1 0.1-0.1 0.2-0.7 0.9-1.4 2-0.4 0.5-0.8 1.1-1.1 1.6-2.1 3.3-1.1 1.7-2.1 3.4-1.1 1.6-2.1 3.3-1 1.7-1.9 3.3-1 1.7-2 3.4-0.2 0.4-0.4 0.8-0.8 1.4-1.5 2.7l0.2 0.7h0.3q0.1-0.1 0.1-0.1 0.9-1.8 1.8-3.5z"/><path class="d" d=""/><path class="e" d="m191.7 50.7q-0.4 0-0.8 0 0.2 0 0.4 0 0.2 0 0.4 0z"/><path class="f" d="m191.7 50.7q-0.4 0-0.8 0 0.2 0 0.4 0 0.2 0 0.4 0z"/><path class="e" d="m192.9 47.4q0.1 0 0.1 0 0.3 0 0.6 0-0.4 0-0.7 0z"/><path class="f" d="m192.9 47.4q0.1 0 0.1 0 0.3 0 0.6 0-0.4 0-0.7 0z"/><path class="q" d="m191.4 37.1q1.2-1.6 2.3-3.1 1.3-1.6 2.5-3 0.1-0.1 0.2-0.2 1.2-1.4 2.4-2.7l-1.5-4.2q-0.2 0.3-0.5 0.5-1.1 1-2.2 2.1-1.2 1.3-2.6 2.7-1.2 1.3-2.5 2.7-1.1 1.2-2.1 2.5-0.1 0.1-0.1 0.1l1.9 5.6q1.1-1.5 2.2-3z"/><path class="r" d="m175 64.8q-0.7 1.3-1.5 2.7 0 0.1 0 0.1-0.1 0.2-0.2 0.4c-0.3 0.6-0.6 1.2-1.3 2.5 0.7 0.5 1.2 1.5 1.6 2.7 0.1-1.2-0.2-2.3-0.9-3.2 3.8 0.8 7.3 0.3 9.4-2.3q0.2-0.3 0.5-0.7c-0.9 0.8-1.9 1.1-3.7 0.8 2.8-0.8 4.3-1.8 5.8-3.5q0.5-0.6 1-1.4c-2.7 2.1-5.5 2.3-8.2 1.4l-2.2-0.1q-0.2 0.3-0.3 0.6z"/><path class="s" d="m176.7 60.1q1-1.7 2-3.4 0.9-1.7 1.9-3.3 1-1.7 2-3.3 1.1-1.7 2.1-3.4 1.1-1.7 2.2-3.3 0.4-0.6 0.8-1.2 0.7-1 1.4-2 0 0 0-0.1l-1.8-5.6q-0.1 0.1-0.2 0.2-1.1 1.4-2.3 2.8-1.1 1.5-2.2 3-1 1.3-1.9 2.6-0.2 0.3-0.3 0.5-1.2 1.7-2.1 3.2-1.1 1.8-1.9 3.4-0.6 1.1-1.1 2.1-0.4 0.8-0.8 1.6-0.9 2-1.6 4l1.9 5.7q0.7-1.4 1.5-2.7 0.2-0.4 0.4-0.8z"/><path class="t" d="m172.8 58.1q-0.8 2.4-1.4 4.9 0 0.1 0 0.2c-0.7-1.4-2.7-3.1-2.7-3.1 1.3 2.6 2.1 5 2 7.3-0.9 0.1-2-0.4-3.3-1.1 1.2 1.5 2.2 2.1 2.6 2.2-1.3-0.1-2.8 0.6-4.3 1.4 2.1-0.5 3.8-0.6 4.9-0.2-2.6 4.9-5.2 10.3-7.9 16.1q0.7-0.1 1.2-0.9c0.5-1 3.7-7.9 8.4-16.8q0.2-0.4 0.4-0.8 0.1-0.1 0.2-0.2 0.7-1.4 1.5-2.9 0.2-0.3 0.4-0.6l-1.9-5.7q0 0.1-0.1 0.2z"/><path class="u" d="m189.5 40.6q-0.1 0.3-0.3 0.5-0.4 0.6-0.9 1.3-0.5 0.8-1 1.5-0.3 0.4-0.5 0.8-0.8 1.2-1.6 2.5-1 1.6-2.1 3.3-1 1.6-2 3.4-1 1.7-2 3.4-0.9 1.6-1.8 3.3-0.1 0.1-0.1 0.1-0.9 1.7-1.9 3.5l2.2 0.1q-0.1 0-0.2 0c2.6 0 6.3-1.4 8.9-3.4q1.7-1.4 3.3-3.5 1.2-1.5 2.3-3.5 1-1.6 2-3.6-0.9 0.3-2.1 0.3-0.2 0.1-0.4 0.1-0.2 0-0.4 0c2.5-0.6 4.3-2.1 5.7-4.2-0.7 0.4-1.8 0.8-3.1 0.9q-0.2 0-0.5 0 0 0-0.1 0 1.3-0.3 2.3-0.9 0.2-0.1 0.4-0.2 0.3-0.2 0.6-0.5 0.2-0.1 0.4-0.3 0.4-0.3 0.8-0.8 0.1-0.1 0.2-0.3 0.2-0.2 0.3-0.4 0.6-0.9 1.1-1.6 0.2-0.4 0.4-0.7 0-0.2 0.1-0.3 0.2-0.3 0.3-0.6 0.2-0.5 0.3-0.7-0.2 0.1-0.3 0.1c-0.8 0.4-2.1 0.6-3.1 0.6l2 0.1-2-0.1q-0.1 0-0.1 0-0.1 0-0.3 0 0 0 0.1 0l-6.9-0.2z"/><path class="v" d="m199.1 28.2q-1.1 1.2-2.4 2.8-0.1 0.1-0.2 0.2-1.1 1.4-2.4 3.1-1.1 1.4-2.3 3.2-1.1 1.4-2.2 3.1l6.8 0.2c2.1-0.6 3.1-1.3 4.1-2.3q0.4-0.4 0.8-0.9c0.9-1 1.7-2.1 2.5-3.2 0.7-1 1.4-2.1 2-3q0.5-1 0.8-1.7 0.3-0.7 0.5-1.3c-2.7 0-5.9 0-8-0.2z"/><path class="e" d="m191.3 50.7q-0.2 0-0.4 0 0.2 0 0.4 0z"/><path class="f" d="m191.3 50.7q-0.2 0-0.4 0 0.2 0 0.4 0z"/><path class="w" d="m191.3 50.7q-0.2 0-0.4 0 0.2 0 0.4 0z"/><path class="e" d="m192.9 47.4q0.1 0 0.1 0 0 0-0.1 0z"/><path class="f" d="m192.9 47.4q0.1 0 0.1 0 0 0-0.1 0z"/><path class="x" d="m192.9 47.4q0.1 0 0.1 0 0 0-0.1 0z"/><path class="e" d=""/><path class="f" d=""/><path class="y" d=""/></svg>
