<svg xmlns="http://www.w3.org/2000/svg" version="1.2" viewBox="0 0 320 86">
  <defs>
    <linearGradient id="P" gradientUnits="userSpaceOnUse"/>
    <linearGradient id="g1" x2="1" gradientTransform="matrix(8.534 -10.85 9.822 7.725 158.196 24.519)" href="#P">
      <stop stop-color="#f69923"/>
      <stop offset=".31" stop-color="#f79a23"/>
      <stop offset=".84" stop-color="#e97826"/>
    </linearGradient>
    <linearGradient id="g2" x2="1" gradientTransform="matrix(-12.517 -62.77 21.339 -4.255 170.045 89.861)" href="#P">
      <stop offset=".32" stop-color="#9e2064"/>
      <stop offset=".63" stop-color="#c92037"/>
      <stop offset=".75" stop-color="#cd2335"/>
      <stop offset="1" stop-color="#e97826"/>
    </linearGradient>
    <linearGradient id="g3" x2="1" gradientTransform="matrix(-7.459 -37.405 19.777 -3.944 174.83 81.028)" href="#P">
      <stop stop-color="#282662"/>
      <stop offset=".1" stop-color="#662e8d"/>
      <stop offset=".79" stop-color="#9f2064"/>
      <stop offset=".95" stop-color="#cd2032"/>
    </linearGradient>
    <linearGradient id="g4" x2="1" gradientTransform="matrix(-12.517 -62.771 12.748 -2.542 168.757 86.452)" href="#P">
      <stop offset=".32" stop-color="#9e2064"/>
      <stop offset=".63" stop-color="#c92037"/>
      <stop offset=".75" stop-color="#cd2335"/>
      <stop offset="1" stop-color="#e97826"/>
    </linearGradient>
    <linearGradient id="g5" x2="1" gradientTransform="matrix(-6.578 -32.988 10.898 -2.173 168.693 81.705)" href="#P">
      <stop stop-color="#282662"/>
      <stop offset=".1" stop-color="#662e8d"/>
      <stop offset=".79" stop-color="#9f2064"/>
      <stop offset=".95" stop-color="#cd2032"/>
    </linearGradient>
    <linearGradient id="g6" x2="1" gradientTransform="matrix(-12.517 -62.771 17.465 -3.483 175.254 85.157)" href="#P">
      <stop offset=".32" stop-color="#9e2064"/>
      <stop offset=".63" stop-color="#c92037"/>
      <stop offset=".75" stop-color="#cd2335"/>
      <stop offset="1" stop-color="#e97826"/>
    </linearGradient>
    <linearGradient id="g7" x2="1" gradientTransform="matrix(-12.517 -62.77 27.167 -5.417 175.707 89.115)" href="#P">
      <stop offset=".32" stop-color="#9e2064"/>
      <stop offset=".63" stop-color="#c92037"/>
      <stop offset=".75" stop-color="#cd2335"/>
      <stop offset="1" stop-color="#e97826"/>
    </linearGradient>
    <linearGradient id="g8" x2="1" gradientTransform="matrix(-12.517 -62.771 94.04 -18.752 177.186 84.771)" href="#P">
      <stop offset=".32" stop-color="#9e2064"/>
      <stop offset=".63" stop-color="#c92037"/>
      <stop offset=".75" stop-color="#cd2335"/>
      <stop offset="1" stop-color="#e97826"/>
    </linearGradient>
    <linearGradient id="g9" x2="1" gradientTransform="matrix(-12.517 -62.771 314.788 -62.771 176.965 84.815)" href="#P">
      <stop offset=".32" stop-color="#9e2064"/>
      <stop offset=".63" stop-color="#c92037"/>
      <stop offset=".75" stop-color="#cd2335"/>
      <stop offset="1" stop-color="#e97826"/>
    </linearGradient>
    <linearGradient id="g10" x2="1" href="#P">
      <stop offset=".32" stop-color="#9e2064"/>
      <stop offset=".63" stop-color="#c92037"/>
      <stop offset=".75" stop-color="#cd2335"/>
      <stop offset="1" stop-color="#e97826"/>
    </linearGradient>
    <linearGradient id="g11" x2="1" gradientTransform="matrix(15.49 -1.954 1.766 14.002 199.013 24.656)" href="#P">
      <stop stop-color="#f69923"/>
      <stop offset=".31" stop-color="#f79a23"/>
      <stop offset=".84" stop-color="#e97826"/>
    </linearGradient>
    <linearGradient id="g12" x2="1" gradientTransform="matrix(39.796 -60.476 20.473 13.472 156.636 86.671)" href="#P">
      <stop offset=".32" stop-color="#9e2064"/>
      <stop offset=".63" stop-color="#c92037"/>
      <stop offset=".75" stop-color="#cd2335"/>
      <stop offset="1" stop-color="#e97826"/>
    </linearGradient>
    <linearGradient id="g13" x2="1" gradientTransform="matrix(23.715 -36.038 18.845 12.401 167.505 83.362)" href="#P">
      <stop stop-color="#282662"/>
      <stop offset=".1" stop-color="#662e8d"/>
      <stop offset=".79" stop-color="#9f2064"/>
      <stop offset=".95" stop-color="#cd2032"/>
    </linearGradient>
    <linearGradient id="g14" x2="1" gradientTransform="matrix(39.796 -60.476 12.314 8.103 158.307 82.904)" href="#P">
      <stop offset=".32" stop-color="#9e2064"/>
      <stop offset=".63" stop-color="#c92037"/>
      <stop offset=".75" stop-color="#cd2335"/>
      <stop offset="1" stop-color="#e97826"/>
    </linearGradient>
    <linearGradient id="g15" x2="1" gradientTransform="matrix(20.914 -31.782 10.58 6.962 162.028 79.031)" href="#P">
      <stop stop-color="#282662"/>
      <stop offset=".1" stop-color="#662e8d"/>
      <stop offset=".79" stop-color="#9f2064"/>
      <stop offset=".95" stop-color="#cd2032"/>
    </linearGradient>
    <linearGradient id="g16" x2="1" gradientTransform="matrix(39.796 -60.476 16.762 11.03 164.567 87.022)" href="#P">
      <stop offset=".32" stop-color="#9e2064"/>
      <stop offset=".63" stop-color="#c92037"/>
      <stop offset=".75" stop-color="#cd2335"/>
      <stop offset="1" stop-color="#e97826"/>
    </linearGradient>
    <linearGradient id="g17" x2="1" gradientTransform="matrix(39.796 -60.476 25.877 17.028 161.787 90.569)" href="#P">
      <stop offset=".32" stop-color="#9e2064"/>
      <stop offset=".63" stop-color="#c92037"/>
      <stop offset=".75" stop-color="#cd2335"/>
      <stop offset="1" stop-color="#e97826"/>
    </linearGradient>
    <linearGradient id="g18" x2="1" gradientTransform="matrix(39.796 -60.476 91.902 60.476 166.428 88.247)" href="#P">
      <stop offset=".32" stop-color="#9e2064"/>
      <stop offset=".63" stop-color="#c92037"/>
      <stop offset=".75" stop-color="#cd2335"/>
      <stop offset="1" stop-color="#e97826"/>
    </linearGradient>
    <linearGradient id="g19" x2="1" gradientTransform="matrix(39.796 -60.476 91.902 60.476 166.215 88.107)" href="#P">
      <stop offset=".32" stop-color="#9e2064"/>
      <stop offset=".63" stop-color="#c92037"/>
      <stop offset=".75" stop-color="#cd2335"/>
      <stop offset="1" stop-color="#e97826"/>
    </linearGradient>
    <linearGradient id="g20" x2="1" href="#P">
      <stop offset=".32" stop-color="#9e2064"/>
      <stop offset=".63" stop-color="#c92037"/>
      <stop offset=".75" stop-color="#cd2335"/>
      <stop offset="1" stop-color="#e97826"/>
    </linearGradient>
  </defs>
  <style>
    .a{fill:#fff}.d{fill:none}.e,.f{fill:#be202e}.f{opacity:.3}
  </style>
  <path d="M21.5 1.7h16.3q1.7 0 2.4.7.6.5.7 1.5.1.9.3 1.8.2 1.6.4 3.3.3 1.6.5 3.3 1.1 6.3 1.8 12.8.8 6.5 1.9 12.9.4 2 .6 4.1.2 2.1.6 4.1l.2 1q.1.5.5.8.2.1.3.2.2.1.5-.1.8-.2 1.3-1.2t1-1.8q1.2-2.3 2.3-4.5 1.1-2.3 2.4-4.6l6.4-12.2q3.3-6.2 6.5-12.4.8-1.6 1.6-3.1.9-1.6 1.7-3.2.4-.8.9-1.6T74 2.2q.7-.5 1.6-.5h17.2q1 0 1.4.4 1 .6.6 2.3-.3 1.6-.6 3.3l-3 15-7.5 37.2-1.7 8.7q-.2 1.1-.5 2.2-.3 1-1 1.5t-1.6.6h-9.5q-.7-.2-1.3-.3-.5-.1-.8-.7-.3-.5-.2-1.3.2-.8.4-1.7l1-5.1 5.2-25.7q.2-1.4.4-2.6.3-1.3.5-2.6l.4-1.6q.2-.9.2-1.7-.1-.7 0-1.5.2-.8-.3-1-.3-.1-.5.1l-.3.3q-.5.4-.9 1l-.6 1q-.9 1.5-1.8 3.1-.8 1.6-1.8 3.2l-.6 1.2q-.2.6-.6 1.2-.8 1.3-1.5 2.6-.6 1.3-1.4 2.6-.2.3-.3.7-.1.3-.3.6-.6.9-1.1 1.9-.4 1-1.1 2-.6.9-1.1 1.9-.4 1-1 2-1.8 2.9-3.3 5.9-1.5 2.9-3.1 5.8-.3.3-.4.6 0 .3-.3.6-.7 1.1-1.3 2.3-.5 1.1-1.2 2.2-.4.7-.8 1.3-.4.6-.9 1-.6.4-1.1.5-.5 0-1.3.2H44q-.7 0-1.7.1h-1.9q-.9 0-1.7-.1-.8-.1-1.1-.4-.7-.5-.9-1.1-.1-.7-.4-1.6-.2-1.2-.3-2.4-.1-1.3-.4-2.5l-.1-.9q-.3-1.2-.4-2.5-.1-1.4-.4-2.6v-.5q0-.3-.1-.6-.3-.9-.4-1.9-.1-1-.3-2v-.5q0-.3-.1-.5-.2-1-.3-2 0-1-.3-2-.4-2-.7-4.2-.2-2.2-.6-4.3-.4-2.5-.7-5.1-.2-2.6-.9-5-.2-1.4-.6-2.3-.2-.2-.4-.3-.1-.2-.4 0-.6.3-.8 1-.1.7-.4 1.4-.4.7-.5 1.5-.1.7-.2 1.5-.2 1.1-.5 2.2-.2 1.1-.5 2.2l-5.3 26.6-1 4.9-.4 1.6q-.1.8-.6 1.3-.5.7-1.7.9-.7.2-1.5.2-.8-.1-1.6-.1H6.7q-.9-.1-1.4-.6-.5-.5-.4-1.5l.4-2.2L7 59.8l7.5-37.2 2.8-14q.1-.6.2-1.4.2-.9.4-1.7.2-.8.4-1.5.3-.8.5-1.2.6-.7 1.8-1 .3-.1.4 0 .2 0 .5-.1z" class="a"/>
  <path fill-rule="evenodd" d="M141.1 69q0 1.1-.2 2.2t-1.3 1.5q-.7.3-1.5.3h-8.8q-.8-.1-1.2-.5-.6-.4-.8-1.1-.2-.8-.7-1.3-.2-.2-.5-.3-.2-.2-.7-.1-.6.2-1.1.5-.5.3-1 .5-.6.4-1.3.7-.6.3-1.3.6-1.4.6-2.9 1-1.5.3-3 .7-.8.2-1.5.2-.6.1-1.3.2h-.6q-.3.1-.6.1h-1.1q-1.1.2-2 0h-.9q-.7-.2-1.4-.2-.6.1-1.2-.1l-1.8-.4q-.9-.1-1.6-.5-2.7-1.1-4.4-2.8-1.7-1.8-2.3-4.7-.2-.7-.3-1.5 0-.8-.1-1.7-.1-.5 0-1 .2-.5.2-1 0-.3.1-1.2.2-1 .4-1.4.4-1 .5-1.7l1-2.2q.6-1.2 1.3-2.1 2.2-2.9 4.7-4.4 2.5-1.5 6.2-2.6 1.4-.5 2.8-.7 1.4-.2 2.9-.5.8-.2 1.7-.2 1-.1 1.9-.3.7-.2 1.4-.1.7 0 1.6-.2.7-.2 1.4-.2t1.5-.2q2.2-.5 4-.8 1.9-.4 3.6-1.8 1-.9 1.6-2 .1-.3.1-.5t.1-.4q.2-.2.2-.6.1-.4.2-.6v-1.5q-.4-3-3.4-4.1-.8-.3-2.1-.4-1.2-.2-2.5-.1-1.3 0-2.6.2-1.2.2-2.1.5-.7.2-1.3.6-.6.3-1.2.7-.6.4-1.3 1.1-.7.7-1 1.3-.7 1-1.2 1.9-.5.9-1.7 1.2-.8.2-1.7.2h-5.6q-.5 0-1.1.1-.5 0-.8-.1h-.9q-.2-.1-.5-.1t-.5-.2q-.7-.2-.8-1.3 0-.5.2-1t.4-.9q.5-1.1 1-2 .6-1 1.2-1.8l.8-1 .8-1q1-1.1 2.4-2.1.3-.1.7-.5.6-.4 1-.7.5-.3 1.1-.6 1.9-1.1 3.9-1.7 2.1-.7 4.2-1.3 1.3-.3 2.6-.4 1.3-.1 2.7-.4.4-.1 1.2 0 .8.1 1.1-.1 4.1-.1 7.7.3 3.7.4 6.5 1.5 2.9 1.1 4.7 3 1.9 1.8 2.5 4.7.3 1.7 0 3.9t-.8 4.5l-4.5 22.3q-.3 1.9-.7 3.9-.4 1.9-.3 3.5 0 .3-.1.7v.6zm-11.6-15.4q.2-.5.3-1.1.1-.7.1-1.2 0-.6.1-1.1.1-.5-.3-.8-.4-.4-1.4-.4-.4.1-.7.2-.3 0-.8.1-.7.2-1.5.3-.8.1-1.7.3-.3.1-.9.1-1.4.3-2.7.4-1.3.1-2.6.5l-1.6.4q-.7.1-1.4.4-2.3.9-4.1 2.7-1.8 1.8-2.1 5-.1 1.7.6 2.8.4 1.1 1.7 1.8 1.3.6 2.9.9 1.6.3 3.4.2 1.9-.2 3.6-.7 2.8-.8 4.6-2.5 1.9-1.8 3.2-4.4.3-.7.5-1.4.2-.8.6-1.6zM257 46.7q0 .8-.4 1.8t-1 1.3q-.5.4-1.5.6-1 .1-2.2.2h-2.3q-1.1-.1-2-.1h-25.8q-.6 0-1.1.2-.9.4-1.2.8-.2.2-.6.8-.3.5-.3 1 .1.6 0 1.2 0 .5.1 1.1.3 2.4 1.1 4 .9 1.5 2.6 2.7.7.5 1.5.7.9.1 1.7.4.8.2 2.1.3 1.4.1 2.5-.1h.9q1-.2 1.9-.4l1.8-.6q1.1-.5 2.5-1.3t2.2-1.6q.6-.7 1.3-1.3.7-.7 1.5-1 1.1-.5 2.6-.4h4.1q.7-.1 1.2.1h1q.9.2 1.3.5.3.2.2.9 0 .7-.3 1.2-.8 1.4-1.7 2.5-.8 1.1-1.8 2.2-2.8 3.3-6 5.3t-7.7 3.4q-1.2.4-2.3.5-1.1.1-2.4.4-.4.1-.9 0-.4 0-.8.1h-1.1q-.6.2-1.2.1-.6 0-1.1-.1-.8-.1-1.4 0-.6.1-1.3-.1-.5-.2-1.1-.2-.6 0-1-.2-1.1-.2-2.2-.5-1-.2-1.8-.7-1-.4-1.9-.7-.9-.4-1.6-.9-2.8-2-4.8-4.6-1.9-2.7-2.8-6.2-.3-1.1-.4-2.2 0-1.2-.3-2.4v-.7q.1-.4.1-.8-.1-1.2 0-2.6l.4-2.8q.1-.5.1-1.1.1-.6.3-1.1l.3-1.2.8-2.4q.7-1.7 1.3-3.3.6-1.6 1.5-3Q216 26 227.2 21.7q1.5-.6 3-.8 1.5-.3 3.2-.7.8-.1 1.5-.1t1.5-.1q5.1-.1 8.5 1.2 3.4 1.2 5.9 3.2.8.6 1.5 1.4.8.7 1.3 1.5.2.5.7.8.6 1.1 1 2.3.5 1.1 1.1 2.3.3.9.4 1.9.2.9.4 2 .2 1.3.2 2.7l.2 2.8q0 .8-.3 1.8-.2.9-.1 1.7zm-13.9-5.9q.9-1 .6-2.4-.2-1.5-.3-2.2-.9-2.7-2.9-4.1-2-1.5-6.1-1.6-.3.2-.7.1-.4-.1-.7 0-.6.2-1.2.3-.6 0-1.1.2-4.7 1.4-7.6 5.5-.3.4-.7 1.1-.4.6-.6 1.3-.2.6-.2 1.2t.5 1q.7.5 2.1.5h16.7q1.6-.1 2.2-.9z" class="a"/>
  <path d="M300.2 20.1q6-.2 9.6 1.7 3.7 1.9 5.2 5.6.5 1.1.6 2.4.2 1.2.3 2.5.1.8 0 1.5t0 1.4q-.2.6-.1.8-.1 1.4-.4 2.9-.3 1.5-.6 2.9l-1.7 8.9-3.3 16.2q-.4 1.9-.8 3.7-.4 1.7-1.9 2.2-.6.2-1.4.2h-7q-1.2 0-2.1-.1-.9-.2-1.3-.9-.3-.6-.2-1.5.2-1 .4-2.1l1.4-7 3-14.9q.7-3.7 1-6.8.4-3.2-.7-5.4-1-2-3.5-2.8-.5-.2-1.1-.2-.5 0-1-.2-.5-.1-1.3 0-.7 0-1.1.1-.5.1-.8.1-.3 0-.6.1-2.4.6-4 1.6-3.7 2.3-5.2 6.7-1.4 4.4-2.5 9.9l-2.5 12.5-1.2 6.1-.4 1.8q-.2.9-.6 1.5-.7 1.1-1.9 1.3-1.1.2-2.7.2h-5q-1.1 0-2.2-.1t-1.4-.7q-.6-.9-.2-2.6.4-1.7.7-3.2l2.7-13.6 4.4-22 1.1-5.1q.2-1.1.4-2 .2-.9.9-1.5.2-.3.7-.4.5-.2 1-.3h.5q.5-.1 1-.1H279.7q.8 0 1.5.1.8 0 1.4.2.6.3.7.9.2.6.2 1.4 0 .4-.1.7-.1.3 0 .6.1.5.2.6.2.1.5.3 1 .1 1.9-.7.9-.9 1.8-1.4 3.1-2 6.6-3.2 1-.3 1.9-.4 1-.1 2.2-.3.3-.1.9 0 .6 0 .8-.1z" class="a"/>
  <path d="M157.7 18.6c-.5 1.1-.8 3.4-1 6.5l3.5 1.7q-.1-3.4.2-6.2l.1-.2q0 .1-.1.2c0 .6-.2 2.6 0 6.1 1.5-1.2 3.6-3.2 5.2-4.9-1.7-3.5-3.9-4.1-3.9-4.1s-3.1-1.3-4 .9z" style="fill:url(#g1)"/>
  <path fill-rule="evenodd" d="m166.8 36.2-.2.1v.1l.2-.2zM168.9 42.2q-.2.2-.3.4.1-.2.3-.4zM166.9 60.8q0-.1-.1-.2l-.8-3.2q-.5-1.7-.9-3.4l-.8-3.4q-.4-1.7-.8-3.3-.3-1.3-.5-2.6l-.2-.8q-.1-.8-.3-1.6-.1-.7-.3-1.4 0-.2-.1-.4v-.1l-.1.2-.4-.2v.1q.2 1 .4 2.1l.2 1.2q.4 1.7.7 3.4.4 1.8.8 3.5t.8 3.3.8 3.3q.4 1.7.9 3.4.1.4.2.7.4 1.4.7 2.6l.6.3.2-.1v-.1q-.6-1.7-1-3.3z" class="d"/>
  <path d="m169.8 45.4-.5.5.2-.2.3-.3z" class="e"/>
  <path d="m169.8 45.4-.5.5.2-.2.3-.3z" class="f"/>
  <path d="M168.5 42.6h.1q.1-.2.3-.4l-.4.4z" class="e"/>
  <path d="M168.5 42.6h.1q.1-.2.3-.4l-.4.4z" class="f"/>
  <path d="m161.1 37.1-.4-3.4q-.2-1.8-.4-3.5V30q-.1-1.6-.1-3.2l-3.5-1.7v.7q-.1 1.2-.1 2.6v3.3q.1 1.6.1 3.3.1 1.4.2 2.9v.1l4.7 2.4q-.2-1.7-.5-3.3z" style="fill:url(#g2)"/>
  <path d="m168 64.7.8 2.6v.1q.1.2.1.4c.2.6.4 1.1.8 2.4.7-.2 1.7.1 2.7.6-.7-.8-1.5-1.3-2.6-1.4 2.9-1.9 4.7-4.3 4.5-7.3q-.1-.4-.1-.8c-.1 1.2-.5 2-1.9 2.9 1.3-2.3 1.6-3.9 1.5-5.8l-.2-1.6c-.4 3-2 4.9-4.3 6.1l-1.5 1.3q.1.2.2.5z" style="fill:url(#g3)"/>
  <path d="M166.2 60.7q-.5-1.7-.9-3.4-.4-1.6-.8-3.3-.4-1.6-.8-3.3-.4-1.7-.8-3.5-.3-1.7-.7-3.4l-.2-1.2q-.2-1-.4-2.1v-.1L157 38v.2q.1 1.6.3 3.2.2 1.7.4 3.3l.4 2.8q.1.3.1.6.4 1.7.7 3.3.5 1.7.9 3.3.3 1 .6 1.9l.6 1.6q.6 1.8 1.4 3.5l4.7 2.4q-.4-1.3-.7-2.7-.1-.3-.2-.7z" style="fill:url(#g4)"/>
  <path d="M162.5 61.8q1 2.1 2.2 4v.1c-1.3-.5-3.6-.2-3.5-.2 2.3.8 4.4 1.8 5.7 3.3-.5.6-1.5 1-2.7 1.4 1.7.2 2.6-.1 3-.3-.9.8-1.4 2.1-1.8 3.6 1-1.7 1.9-2.7 2.9-3.2 1.4 4.7 3.1 9.8 5 15.1.3-.4.3-.9.2-1.4-.3-.9-2.6-7.2-5.1-15.8q-.1-.3-.2-.7-.1-.1-.1-.2l-.8-2.8-.2-.6V64l-4.7-2.3.1.1z" style="fill:url(#g5)"/>
  <path d="M162.1 40.5q.1.2.1.4.2.7.3 1.4.2.8.3 1.6l.2.8q.2 1.3.5 2.6.4 1.6.8 3.3l.8 3.4q.4 1.7.9 3.4l.8 3.2q.1.1.1.2.4 1.6.9 3.3v.1l1.5-1.3h-.1c1.6-1.6 3.1-4.7 3.4-7.6q.2-2 0-4.3-.2-1.7-.7-3.6-.4-1.7-1.1-3.6-.4.8-1 1.6-.2.1-.3.3-.1.1-.3.2c1.3-1.9 1.4-3.9 1.1-6.1-.3.6-.7 1.6-1.4 2.4l-.4.4q.6-1 .9-1.9 0-.3.1-.5 0-.3.1-.6v-.4q.1-.5 0-1v-.4q0-.2-.1-.4-.1-1-.3-1.7-.1-.4-.2-.7-.1-.1-.1-.2-.1-.4-.2-.6-.1-.4-.3-.6 0 .1-.1.3c-.3.6-.9 1.6-1.5 2.2l1.3-1.1-1.3 1.1-.1.1-.2.2.1-.1-4.5 4.1q.1.1 0 .1z" style="fill:url(#g6)"/>
  <path d="M160.4 26.7q.1 1.5.3 3.3v.2q.1 1.6.4 3.4.2 1.6.5 3.5.2 1.6.5 3.3l4.5-4.1c.9-1.6 1.1-2.7 1.1-4v-1.1c-.1-1.1-.2-2.3-.4-3.5-.2-1.1-.4-2.2-.7-3.2q-.2-.9-.5-1.5t-.5-1.2c-1.6 1.7-3.7 3.7-5.2 4.9z" style="fill:url(#g7)"/>
  <path d="M168.5 42.6h.1-.1z" class="e"/>
  <path d="M168.5 42.6h.1-.1z" class="f"/>
  <path d="M168.5 42.6h.1-.1z" style="fill:url(#g9)"/>
  <path d="M203.3 19.5c-1.2.5-3.4 2.1-6 4.4l1.5 4.2c1.7-1.9 3.5-3.5 5.2-4.8q.1-.2.2-.2l-.2.2c-.6.4-2.3 1.9-4.9 4.9 2.1.2 5.3.2 8 .2 1.4-4.3.2-6.5.2-6.5s-1.5-3.4-4-2.4z" style="fill:url(#g11)"/>
  <path fill-rule="evenodd" d="M196.6 40.8q0 .1.1 0h-.4.3zM193.6 47.4h-.6.6zM177.2 60.7l.1-.1q.9-1.7 1.8-3.3l2-3.4q1-1.8 2-3.4 1.1-1.7 2.1-3.3.8-1.3 1.6-2.5.2-.4.5-.8.5-.7 1-1.5.5-.7.9-1.3.2-.2.3-.5h.1-.3l-.1-.5q-.1.1-.1.2-.7.9-1.4 2-.4.5-.8 1.1-1.1 1.6-2.1 3.3-1.1 1.7-2.1 3.4-1.1 1.6-2.1 3.3-1 1.7-1.9 3.3l-2 3.4-.4.8q-.8 1.4-1.5 2.7l.2.7h.3l.1-.1q.9-1.8 1.8-3.5z" class="d"/>
  <path d="M191.7 50.7h-.8.8z" class="e"/>
  <path d="M191.7 50.7h-.8.8z" class="f"/>
  <path d="M192.9 47.4h.7-.7z" class="e"/>
  <path d="M192.9 47.4h.7-.7z" class="f"/>
  <path d="M191.4 37.1q1.2-1.6 2.3-3.1 1.3-1.6 2.5-3l.2-.2q1.2-1.4 2.4-2.7l-1.5-4.2q-.2.3-.5.5-1.1 1-2.2 2.1-1.2 1.3-2.6 2.7-1.2 1.3-2.5 2.7-1.1 1.2-2.1 2.5l-.1.1 1.9 5.6 2.2-3z" style="fill:url(#g12)"/>
  <path d="M175 64.8q-.7 1.3-1.5 2.7v.1l-.2.4c-.3.6-.6 1.2-1.3 2.5.7.5 1.2 1.5 1.6 2.7.1-1.2-.2-2.3-.9-3.2 3.8.8 7.3.3 9.4-2.3q.2-.3.5-.7c-.9.8-1.9 1.1-3.7.8 2.8-.8 4.3-1.8 5.8-3.5q.5-.6 1-1.4c-2.7 2.1-5.5 2.3-8.2 1.4l-2.2-.1q-.2.3-.3.6z" style="fill:url(#g13)"/>
  <path d="m176.7 60.1 2-3.4q.9-1.7 1.9-3.3 1-1.7 2-3.3 1.1-1.7 2.1-3.4 1.1-1.7 2.2-3.3l.8-1.2 1.4-2v-.1l-1.8-5.6-.2.2q-1.1 1.4-2.3 2.8l-2.2 3q-1 1.3-1.9 2.6-.2.3-.3.5-1.2 1.7-2.1 3.2-1.1 1.8-1.9 3.4-.6 1.1-1.1 2.1l-.8 1.6q-.9 2-1.6 4l1.9 5.7q.7-1.4 1.5-2.7l.4-.8z" style="fill:url(#g14)"/>
  <path d="M172.8 58.1q-.8 2.4-1.4 4.9v.2c-.7-1.4-2.7-3.1-2.7-3.1 1.3 2.6 2.1 5 2 7.3-.9.1-2-.4-3.3-1.1 1.2 1.5 2.2 2.1 2.6 2.2-1.3-.1-2.8.6-4.3 1.4 2.1-.5 3.8-.6 4.9-.2-2.6 4.9-5.2 10.3-7.9 16.1q.7-.1 1.2-.9c.5-1 3.7-7.9 8.4-16.8l.4-.8.2-.2q.7-1.4 1.5-2.9l.4-.6-1.9-5.7q0 .1-.1.2z" style="fill:url(#g15)"/>
  <path d="M189.5 40.6q-.1.3-.3.5-.4.6-.9 1.3-.5.8-1 1.5-.3.4-.5.8-.8 1.2-1.6 2.5-1 1.6-2.1 3.3-1 1.6-2 3.4l-2 3.4q-.9 1.6-1.8 3.3l-.1.1q-.9 1.7-1.9 3.5l2.2.1h-.2c2.6 0 6.3-1.4 8.9-3.4q1.7-1.4 3.3-3.5 1.2-1.5 2.3-3.5 1-1.6 2-3.6-.9.3-2.1.3-.2.1-.4.1h-.4c2.5-.6 4.3-2.1 5.7-4.2-.7.4-1.8.8-3.1.9h-.6q1.3-.3 2.3-.9l.4-.2q.3-.2.6-.5.2-.1.4-.3.4-.3.8-.8.1-.1.2-.3.2-.2.3-.4.6-.9 1.1-1.6.2-.4.4-.7 0-.2.1-.3.2-.3.3-.6.2-.5.3-.7-.2.1-.3.1c-.8.4-2.1.6-3.1.6l2 .1-2-.1h-.4.1l-6.9-.2z" style="fill:url(#g16)"/>
  <path d="M199.1 28.2q-1.1 1.2-2.4 2.8l-.2.2q-1.1 1.4-2.4 3.1-1.1 1.4-2.3 3.2-1.1 1.4-2.2 3.1l6.8.2c2.1-.6 3.1-1.3 4.1-2.3q.4-.4.8-.9c.9-1 1.7-2.1 2.5-3.2.7-1 1.4-2.1 2-3q.5-1 .8-1.7.3-.7.5-1.3c-2.7 0-5.9 0-8-.2z" style="fill:url(#g17)"/>
  <path d="M191.3 50.7h-.4.4z" class="e"/>
  <path d="M191.3 50.7h-.4.4z" class="f"/>
  <path d="M191.3 50.7h-.4.4z" style="fill:url(#g18)"/>
  <path d="M192.9 47.4h.1-.1z" class="e"/>
  <path d="M192.9 47.4h.1-.1z" class="f"/>
  <path d="M192.9 47.4h.1-.1z" style="fill:url(#g19)"/>
</svg>
