<svg version="1.2" xmlns="http://www.w3.org/2000/svg" viewBox="0 0 36 36"><style>.a{fill:#007fff}</style><path fill-rule="evenodd" class="a" d="m30.3 24q0.2-0.1 0.3-0.2 0-0.1 0.1-0.2 0.1-0.1 0.1-0.2 0-0.2 0-0.3l0.1-5.8q0-0.1 0-0.2 0-0.2 0.1-0.3 0.1-0.1 0.2-0.2 0.1-0.1 0.2-0.1l3.1-1.8q0.2-0.2 0.5-0.2 0.3 0 0.5 0.2 0.2 0.1 0.4 0.3 0.1 0.3 0.1 0.5v10.5q0 0.2 0 0.3-0.1 0.1-0.1 0.2-0.1 0.2-0.2 0.3-0.1 0-0.2 0.1l-11.8 6.8q-0.2 0.1-0.3 0.1-0.1 0-0.2 0-0.2 0-0.3 0-0.1 0-0.2-0.1l-9.3-5.3q-0.1-0.1-0.2-0.2-0.1-0.1-0.2-0.2-0.1-0.1-0.1-0.2 0-0.1 0-0.3v-5.3q0 0 0 0 0 0 0 0 0 0 0 0l7.7-4.4q0 0-0.1 0 0 0 0 0 0 0 0 0 0 0 0 0 0 0 0 0l0.1-5.2q0-0.3-0.2-0.5-0.1-0.3-0.3-0.4-0.3-0.1-0.5-0.1-0.3 0-0.5 0.1l-5.7 3.3q-0.1 0.1-0.3 0.1-0.1 0-0.2 0-0.2 0-0.3 0-0.1 0-0.2-0.1l-5.7-3.3q-0.3-0.1-0.5-0.1-0.3 0-0.5 0.1-0.3 0.1-0.4 0.4-0.1 0.2-0.1 0.5v9.4q0 0.2-0.2 0.5-0.1 0.2-0.3 0.3-0.3 0.2-0.5 0.2-0.3 0-0.5-0.2l-3.2-1.8q-0.1 0-0.2-0.1-0.1-0.1-0.2-0.2 0-0.2-0.1-0.3 0-0.1 0-0.2v-16.5q0-0.2 0.2-0.5 0.1-0.2 0.3-0.3 0.3-0.2 0.5-0.2 0.3 0 0.5 0.2l10.9 6.2q0.1 0.1 0.2 0.1 0.1 0 0.3 0 0.1 0 0.2 0 0.2 0 0.3-0.1l10.8-6.2q0.2-0.2 0.5-0.2 0.3 0 0.5 0.2 0.2 0.1 0.4 0.3 0.1 0.3 0.1 0.5v16.5q0 0.1 0 0.2-0.1 0.1-0.1 0.3-0.1 0.1-0.2 0.2-0.1 0.1-0.2 0.1l-5.7 3.3q-0.2 0.1-0.3 0.4-0.2 0.2-0.2 0.5 0 0.2 0.2 0.5 0.1 0.2 0.3 0.3l3.2 1.8q0.1 0.1 0.2 0.1 0.1 0 0.3 0 0.1 0 0.2 0 0.1 0 0.3-0.1zm0.6-18.4q0-0.1 0-0.2 0.1-0.2 0.1-0.3 0.1-0.1 0.2-0.2 0.1-0.1 0.2-0.2l3-1.8q0.2-0.1 0.5-0.1 0.3 0 0.5 0.1 0.2 0.2 0.4 0.4 0.1 0.2 0.1 0.5v3.7q0 0.1 0 0.2-0.1 0.2-0.1 0.3-0.1 0.1-0.2 0.2-0.1 0.1-0.2 0.1l-3 1.8q-0.2 0.2-0.5 0.2-0.2 0-0.5-0.2-0.2-0.1-0.3-0.3-0.2-0.3-0.2-0.5c0 0 0-3.7 0-3.7z"/></svg>
