<svg xmlns="http://www.w3.org/2000/svg" version="1.2" viewBox="0 0 36 36"><path fill-rule="evenodd" d="M30.3 24q.2-.1.3-.2 0-.1.1-.2t.1-.2v-.3l.1-5.8v-.2q0-.2.1-.3l.2-.2q.1-.1.2-.1l3.1-1.8q.2-.2.5-.2t.5.2q.2.1.4.3.1.3.1.5v10.8q-.1.1-.1.2-.1.2-.2.3-.1 0-.2.1l-11.8 6.8q-.2.1-.3.1h-.5q-.1 0-.2-.1l-9.3-5.3-.2-.2-.2-.2q-.1-.1-.1-.2v-5.6l7.7-4.4h-.1l.1-5.2q0-.3-.2-.5-.1-.3-.3-.4-.3-.1-.5-.1-.3 0-.5.1L13.4 15q-.1.1-.3.1h-.5q-.1 0-.2-.1l-5.7-3.3q-.3-.1-.5-.1-.3 0-.5.1-.3.1-.4.4-.1.2-.1.5V22q0 .2-.2.5-.1.2-.3.3-.3.2-.5.2-.3 0-.5-.2L.5 21q-.1 0-.2-.1l-.2-.2q0-.2-.1-.3V3.7q0-.2.2-.5.1-.2.3-.3.3-.2.5-.2.3 0 .5.2l10.9 6.2q.1.1.2.1h.5q.2 0 .3-.1l10.8-6.2q.2-.2.5-.2t.5.2q.2.1.4.3.1.3.1.5v16.7q-.1.1-.1.3l-.2.2q-.1.1-.2.1l-5.7 3.3q-.2.1-.3.4-.2.2-.2.5 0 .2.2.5.1.2.3.3l3.2 1.8q.1.1.2.1h.5q.1 0 .3-.1zm.6-18.4v-.2q.1-.2.1-.3l.2-.2.2-.2 3-1.8q.2-.1.5-.1t.5.1l.4.4q.1.2.1.5v3.9q-.1.2-.1.3l-.2.2q-.1.1-.2.1l-3 1.8q-.2.2-.5.2-.2 0-.5-.2-.2-.1-.3-.3-.2-.3-.2-.5z" style="fill:#007fff"/></svg>