<svg xmlns="http://www.w3.org/2000/svg" version="1.2" viewBox="0 0 107 33"><defs><linearGradient id="P" gradientUnits="userSpaceOnUse"/><linearGradient id="g1" x2="1" gradientTransform="matrix(-7.356 14.913 -16.333 -8.056 34.513 15.535)" href="#P"><stop stop-color="#3f873f"/><stop offset=".33" stop-color="#3f8b3d"/><stop offset=".64" stop-color="#3e9638"/><stop offset=".93" stop-color="#3da92e"/><stop offset="1" stop-color="#3dae2b"/></linearGradient><linearGradient id="g2" x2="1" gradientTransform="matrix(20.524 -15.07 12.225 16.649 30.009 23.359)" href="#P"><stop offset=".14" stop-color="#3f873f"/><stop offset=".4" stop-color="#52a044"/><stop offset=".71" stop-color="#64b749"/><stop offset=".91" stop-color="#6abf4b"/></linearGradient><linearGradient id="g3" x2="1" gradientTransform="matrix(18.638 0 0 21.936 21.917 22.261)" href="#P"><stop offset=".09" stop-color="#6abf4b"/><stop offset=".29" stop-color="#64b749"/><stop offset=".6" stop-color="#52a044"/><stop offset=".86" stop-color="#3f873f"/></linearGradient><clipPath id="cp1" clipPathUnits="userSpaceOnUse"><path d="M0 0h111v33H0z"/></clipPath></defs><style>.a{fill:#5fa04e}</style><g clip-path="url(#cp1)"><path d="M97.7 32.7q-.4 0-.8-.2L94.3 31c-.3-.2-.2-.3 0-.3.5-.2.6-.2 1.1-.5q.1-.1.2 0l2 1.2h.2l7.6-4.5q.1-.1.1-.2v-8.9q0-.1-.1-.2l-7.6-4.4q-.1-.1-.2 0l-7.7 4.4c-.1 0-.1.1-.1.2v8.9c0 .1 0 .2.1.2l2.1 1.2c1.1.6 1.8-.1 1.8-.7v-8.8c0-.1.1-.2.3-.2h.9c.2 0 .3.1.3.2v8.8c0 1.5-.8 2.4-2.3 2.4-.4 0-.8 0-1.7-.5l-2-1.2c-.5-.3-.9-.8-.9-1.4v-8.9c0-.5.4-1.1.9-1.4l7.6-4.4c.5-.3 1.1-.3 1.6 0l7.6 4.4c.5.3.8.9.8 1.4v8.9c0 .6-.3 1.1-.8 1.4l-7.6 4.5c-.2.1-.5.1-.8.1" class="a"/><path d="M100.1 26.6c-3.4 0-4.1-1.5-4.1-2.8 0-.1.1-.2.3-.2h.9c.2 0 .3 0 .3.2.1 1 .6 1.5 2.6 1.5 1.6 0 2.3-.4 2.3-1.3 0-.5-.2-.8-2.7-1.1-2.1-.2-3.4-.7-3.4-2.3 0-1.6 1.3-2.5 3.5-2.5 2.4 0 3.6.8 3.8 2.7q0 .1-.1.2h-1.1c-.1 0-.2 0-.3-.1-.2-1.1-.8-1.4-2.3-1.4-1.8 0-2 .6-2 1 0 .6.2.8 2.6 1.1 2.4.3 3.5.7 3.5 2.4s-1.4 2.6-3.8 2.6" class="a"/><path fill-rule="evenodd" d="M18.2 17.4c0-.3-.2-.6-.5-.8l-8.1-4.7q-.2-.1-.5-.2H9l-.4.2-8.1 4.7c-.3.1-.5.5-.5.8v12.7c0 .1.1.3.3.4.1.1.3.1.4 0l4.9-2.8c.3-.2.5-.5.5-.8V21c0-.4.2-.7.5-.9l2-1.2q.2-.1.5-.1t.5.1l2 1.2c.3.2.5.5.5.9v5.9c0 .3.2.6.5.8l4.8 2.8c.2.1.4.1.5 0 .2-.1.3-.3.3-.4zM62 2.8c.3.1.5.5.5.8v23.5c0 .4-.2.7-.5.9l-8.1 4.7c-.3.1-.7.1-1 0L44.8 28c-.3-.2-.5-.5-.5-.9v-9.4c0-.4.2-.7.5-.9l8.1-4.7c.3-.1.7-.1 1 0l2 1.2q.2.1.3 0 .2-.1.2-.3V.5q0-.3.3-.4c.1-.1.3-.1.4 0zm-5.5 18c0-.1-.1-.2-.2-.3l-2.7-1.6h-.3l-2.8 1.6q-.1.1-.1.3V24c0 .1.1.2.1.2l2.8 1.6q.1.1.3 0l2.7-1.6q.2-.1.2-.2zm27.6-.1c.3-.2.5-.5.5-.9v-2.2c0-.4-.2-.7-.5-.9l-8-4.7c-.3-.2-.7-.2-1 0L67 16.7c-.3.2-.5.5-.5.9V27c0 .3.2.7.5.8l8.1 4.7c.3.1.6.1.9 0l4.9-2.8c.1-.1.2-.2.2-.4s-.1-.3-.2-.4l-8.2-4.7q-.2-.2-.2-.5v-2.9c0-.2.1-.4.2-.4l2.6-1.5c.1-.1.3-.1.5 0l2.5 1.5q.3.1.3.4v2.3c0 .2.1.3.2.4.2.1.4.1.5 0z" style="fill:#fff"/><path fill-rule="evenodd" d="M75.5 20.3q.1-.1.2 0l1.5.9q.1 0 .1.1v1.8q0 .2-.1.2l-1.5.9q-.1.1-.2 0l-1.6-.9q-.1 0-.1-.2v-1.8q0-.1.1-.1z" class="a"/><path d="M31.7 12.1c-.3-.2-.6-.2-1 0l-8 4.6c-.3.2-.5.5-.5.9V27c0 .3.2.6.5.8l8 4.7c.4.2.7.2 1 0l8.1-4.7c.3-.2.5-.5.5-.8v-9.4c0-.4-.2-.7-.5-.9z" style="fill:url(#g1)"/><path d="m39.8 16.7-8.1-4.6q-.1-.1-.2-.1l-9.1 15.6q.1.1.3.2l8 4.7q.4.2.8.1L40 16.9z" style="fill:url(#g2)"/><path d="M39.8 27.8c.2-.1.4-.4.5-.6l-8.9-15.3c-.2 0-.5 0-.7.2l-8 4.6 8.7 15.9q.1 0 .3-.1z" style="fill:url(#g3)"/></g></svg>