<svg xmlns="http://www.w3.org/2000/svg" width="267" height="164" fill="none" viewBox="0 0 319 195"><g clip-path="url(#a)"><mask id="b" width="319" height="195" x="0" y="0" maskUnits="userSpaceOnUse" style="mask-type:luminance"><path fill="#fff" d="M319 0H0v195h319z"/></mask><g mask="url(#b)"><path fill="#5FA04E" d="M157.625 195c-1.081 0-2.091-.288-3.028-.792l-9.59-5.686c-1.442-.792-.721-1.08-.289-1.224 1.947-.648 2.308-.792 4.327-1.944.216-.144.504-.072.721.072l7.355 4.391c.288.144.649.144.865 0l28.77-16.628c.289-.144.433-.432.433-.791v-33.184c0-.36-.144-.648-.433-.792l-28.77-16.556c-.289-.144-.649-.144-.865 0l-28.771 16.556c-.288.144-.433.504-.433.792v33.184c0 .288.145.647.433.791l7.86 4.535c4.254 2.16 6.922-.36 6.922-2.879v-32.752c0-.432.36-.864.865-.864h3.678c.432 0 .865.36.865.864v32.752c0 5.687-3.101 8.998-8.509 8.998-1.658 0-2.956 0-6.633-1.8l-7.572-4.319a6.07 6.07 0 0 1-3.028-5.254v-33.184a6.07 6.07 0 0 1 3.028-5.255l28.771-16.628c1.803-1.008 4.254-1.008 6.057 0l28.77 16.628a6.07 6.07 0 0 1 3.029 5.255v33.184a6.07 6.07 0 0 1-3.029 5.254l-28.77 16.628c-.865.36-1.947.648-3.029.648"/><path fill="#5FA04E" d="M166.567 172.182c-12.619 0-15.215-5.759-15.215-10.654 0-.432.361-.864.865-.864h3.75c.433 0 .793.288.793.72.577 3.815 2.235 5.687 9.879 5.687 6.057 0 8.652-1.368 8.652-4.607 0-1.872-.721-3.239-10.167-4.175-7.859-.792-12.762-2.519-12.762-8.782 0-5.83 4.903-9.286 13.123-9.286 9.23 0 13.772 3.168 14.349 10.078q0 .324-.216.648c-.144.144-.361.288-.577.288h-3.822a.845.845 0 0 1-.793-.648c-.865-3.959-3.1-5.255-9.013-5.255-6.634 0-7.427 2.304-7.427 4.031 0 2.088.937 2.736 9.878 3.887 8.87 1.152 13.052 2.808 13.052 8.998 0 6.335-5.264 9.934-14.349 9.934m41.533-34.84c0 3.023-2.524 5.543-5.552 5.543-3.029 0-5.552-2.448-5.552-5.543 0-3.167 2.595-5.542 5.552-5.542s5.552 2.447 5.552 5.542m-10.239 0c0 2.592 2.091 4.679 4.615 4.679 2.596 0 4.687-2.159 4.687-4.679 0-2.591-2.091-4.607-4.687-4.607-2.452 0-4.615 2.016-4.615 4.607m2.596-3.095h2.163c.721 0 2.163 0 2.163 1.656 0 1.151-.721 1.367-1.154 1.511.866.072.938.648 1.01 1.44.072.504.144 1.367.288 1.655h-1.298c0-.288-.216-1.871-.216-1.943-.072-.36-.216-.504-.649-.504h-1.081v2.519h-1.226zm1.153 2.735h.938c.793 0 .937-.576.937-.864 0-.863-.577-.863-.937-.863h-1.01v1.727z"/><path fill="#fff" fill-rule="evenodd" d="M68.43 65.216a3.66 3.66 0 0 0-1.876-3.167l-30.5-17.636c-.505-.288-1.082-.432-1.66-.504h-.288c-.576 0-1.153.216-1.658.504L1.875 61.977A3.69 3.69 0 0 0 0 65.216l.072 47.22c0 .648.36 1.296.937 1.584.577.36 1.298.36 1.803 0l18.171-10.366a3.66 3.66 0 0 0 1.875-3.167V78.389c0-1.296.72-2.52 1.875-3.167l7.715-4.463c.577-.36 1.226-.504 1.875-.504s1.298.144 1.803.504l7.715 4.463a3.66 3.66 0 0 1 1.875 3.167v22.098a3.66 3.66 0 0 0 1.874 3.167l18.027 10.366c.577.36 1.298.36 1.875 0 .577-.288.937-.936.937-1.584zm146.952-65c-.576-.288-1.297-.288-1.802 0-.577.36-.938.936-.938 1.584v46.788c0 .432-.216.864-.649 1.152a1.38 1.38 0 0 1-1.297 0l-7.644-4.391a3.72 3.72 0 0 0-3.677 0l-30.573 17.636a3.66 3.66 0 0 0-1.875 3.167v35.199a3.66 3.66 0 0 0 1.875 3.167l30.573 17.636a3.72 3.72 0 0 0 3.677 0l30.573-17.636a3.66 3.66 0 0 0 1.875-3.167V13.605a3.69 3.69 0 0 0-1.875-3.24zm-2.812 89.546c0 .36-.144.648-.432.792L201.682 96.6a1.07 1.07 0 0 1-.937 0l-10.456-6.046c-.288-.144-.432-.504-.432-.792V77.669c0-.36.144-.648.432-.792l10.456-6.046a1.07 1.07 0 0 1 .937 0l10.456 6.046c.288.144.432.504.432.792zM317.125 77.38c1.154-.647 1.803-1.87 1.803-3.166v-8.566c0-1.296-.721-2.52-1.803-3.167l-30.356-17.564a3.72 3.72 0 0 0-3.678 0l-30.573 17.636a3.66 3.66 0 0 0-1.875 3.167v35.199a3.66 3.66 0 0 0 1.875 3.167l30.357 17.276c1.153.648 2.523.648 3.605 0l18.387-10.221c.577-.288.938-.936.938-1.584s-.361-1.296-.938-1.584L274.15 90.338c-.577-.36-.938-.936-.938-1.584V77.741c0-.648.361-1.296.938-1.584l9.59-5.47a1.76 1.76 0 0 1 1.875 0l9.59 5.47c.577.36.937.936.937 1.584v8.638c0 .648.361 1.295.938 1.583.577.36 1.298.36 1.875 0z" clip-rule="evenodd"/><path fill="#5FA04E" fill-rule="evenodd" d="M284.461 75.725a.66.66 0 0 1 .721 0l5.841 3.384c.216.144.36.36.36.647v6.767a.76.76 0 0 1-.36.648l-5.841 3.383a.66.66 0 0 1-.721 0l-5.841-3.383a.76.76 0 0 1-.36-.648v-6.767c0-.288.144-.504.36-.647z" clip-rule="evenodd"/><path fill="url(#c)" d="M119.445 44.507a3.78 3.78 0 0 0-3.74 0L84.833 62.329C83.66 62.99 83 64.236 83 65.556v35.719c0 1.32.733 2.566 1.833 3.227l30.872 17.822a3.78 3.78 0 0 0 3.74 0l30.872-17.822c1.173-.661 1.833-1.907 1.833-3.227V65.556c0-1.32-.734-2.567-1.833-3.227z"/><path fill="url(#d)" d="m150.39 62.33-31.019-17.823a5 5 0 0 0-.953-.367l-34.68 59.41c.293.367.756.902 1.122 1.122l30.845 17.652c.88.513 1.906.66 2.86.366l32.631-59.7a2.3 2.3 0 0 0-.806-.66"/><path fill="url(#e)" d="M150.314 104.502c.88-.514 1.673-1.476 1.673-2.636l-33.792-57.8c-.88-.146-1.833-.073-2.64.44l-30.798 17.75 33.218 60.581c.44-.073.953-.22 1.393-.44z"/></g></g><defs><linearGradient id="c" x1="130.147" x2="102.227" y1="57.78" y2="114.729" gradientUnits="userSpaceOnUse"><stop stop-color="#3F873F"/><stop offset=".33" stop-color="#3F8B3D"/><stop offset=".637" stop-color="#3E9638"/><stop offset=".934" stop-color="#3DA92E"/><stop offset="1" stop-color="#3DAE2B"/></linearGradient><linearGradient id="d" x1="112.883" x2="191.215" y1="87.586" y2="29.721" gradientUnits="userSpaceOnUse"><stop offset=".138" stop-color="#3F873F"/><stop offset=".402" stop-color="#52A044"/><stop offset=".713" stop-color="#64B749"/><stop offset=".908" stop-color="#6ABF4B"/></linearGradient><linearGradient id="e" x1="81.868" x2="153.304" y1="83.404" y2="83.404" gradientUnits="userSpaceOnUse"><stop offset=".092" stop-color="#6ABF4B"/><stop offset=".287" stop-color="#64B749"/><stop offset=".598" stop-color="#52A044"/><stop offset=".862" stop-color="#3F873F"/></linearGradient><clipPath id="a"><path fill="#fff" d="M0 0h319v195H0z"/></clipPath></defs></svg>