<svg version="1.2" xmlns="http://www.w3.org/2000/svg" viewBox="0 0 107 33"><defs><clipPath clipPathUnits="userSpaceOnUse" id="cp1"><path d="m0 0h111v33h-111z"/></clipPath><linearGradient id="P" gradientUnits="userSpaceOnUse"/><linearGradient id="g1" x2="1" href="#P" gradientTransform="matrix(-7.356,14.913,-16.333,-8.056,34.513,15.535)"><stop stop-color="#3f873f"/><stop offset=".33" stop-color="#3f8b3d"/><stop offset=".64" stop-color="#3e9638"/><stop offset=".93" stop-color="#3da92e"/><stop offset="1" stop-color="#3dae2b"/></linearGradient><linearGradient id="g2" x2="1" href="#P" gradientTransform="matrix(20.524,-15.07,12.225,16.649,30.009,23.359)"><stop offset=".14" stop-color="#3f873f"/><stop offset=".4" stop-color="#52a044"/><stop offset=".71" stop-color="#64b749"/><stop offset=".91" stop-color="#6abf4b"/></linearGradient><linearGradient id="g3" x2="1" href="#P" gradientTransform="matrix(18.638,0,0,21.936,21.917,22.261)"><stop offset=".09" stop-color="#6abf4b"/><stop offset=".29" stop-color="#64b749"/><stop offset=".6" stop-color="#52a044"/><stop offset=".86" stop-color="#3f873f"/></linearGradient></defs><style>.a{fill:#5fa04e}.b{fill:#fff}.c{fill:url(#g1)}.d{fill:url(#g2)}.e{fill:url(#g3)}</style><g clip-path="url(#cp1)"><path class="a" d="m97.7 32.7q-0.4 0-0.8-0.2l-2.6-1.5c-0.3-0.2-0.2-0.3 0-0.3 0.5-0.2 0.6-0.2 1.1-0.5q0.1-0.1 0.2 0l2 1.2q0.1 0 0.2 0l7.6-4.5q0.1-0.1 0.1-0.2v-8.9q0-0.1-0.1-0.2l-7.6-4.4q-0.1-0.1-0.2 0l-7.7 4.4c-0.1 0-0.1 0.1-0.1 0.2v8.9c0 0.1 0 0.2 0.1 0.2l2.1 1.2c1.1 0.6 1.8-0.1 1.8-0.7v-8.8c0-0.1 0.1-0.2 0.3-0.2h0.9c0.2 0 0.3 0.1 0.3 0.2v8.8c0 1.5-0.8 2.4-2.3 2.4-0.4 0-0.8 0-1.7-0.5l-2-1.2c-0.5-0.3-0.9-0.8-0.9-1.4v-8.9c0-0.5 0.4-1.1 0.9-1.4l7.6-4.4c0.5-0.3 1.1-0.3 1.6 0l7.6 4.4c0.5 0.3 0.8 0.9 0.8 1.4v8.9c0 0.6-0.3 1.1-0.8 1.4l-7.6 4.5c-0.2 0.1-0.5 0.1-0.8 0.1z"/><path class="a" d="m100.1 26.6c-3.4 0-4.1-1.5-4.1-2.8 0-0.1 0.1-0.2 0.3-0.2h0.9c0.2 0 0.3 0 0.3 0.2 0.1 1 0.6 1.5 2.6 1.5 1.6 0 2.3-0.4 2.3-1.3 0-0.5-0.2-0.8-2.7-1.1-2.1-0.2-3.4-0.7-3.4-2.3 0-1.6 1.3-2.5 3.5-2.5 2.4 0 3.6 0.8 3.8 2.7q0 0.1-0.1 0.2 0 0-0.1 0h-1c-0.1 0-0.2 0-0.3-0.1-0.2-1.1-0.8-1.4-2.3-1.4-1.8 0-2 0.6-2 1 0 0.6 0.2 0.8 2.6 1.1 2.4 0.3 3.5 0.7 3.5 2.4 0 1.7-1.4 2.6-3.8 2.6z"/><path fill-rule="evenodd" class="b" d="m18.2 17.4c0-0.3-0.2-0.6-0.5-0.8l-8.1-4.7q-0.2-0.1-0.5-0.2c0 0-0.1 0-0.1 0q-0.2 0.1-0.4 0.2l-8.1 4.7c-0.3 0.1-0.5 0.5-0.5 0.8v12.7c0 0.1 0.1 0.3 0.3 0.4 0.1 0.1 0.3 0.1 0.4 0l4.9-2.8c0.3-0.2 0.5-0.5 0.5-0.8v-5.9c0-0.4 0.2-0.7 0.5-0.9l2-1.2q0.2-0.1 0.5-0.1 0.3 0 0.5 0.1l2 1.2c0.3 0.2 0.5 0.5 0.5 0.9v5.9c0 0.3 0.2 0.6 0.5 0.8l4.8 2.8c0.2 0.1 0.4 0.1 0.5 0 0.2-0.1 0.3-0.3 0.3-0.4z"/><path fill-rule="evenodd" class="b" d="m62 2.8c0.3 0.1 0.5 0.5 0.5 0.8v23.5c0 0.4-0.2 0.7-0.5 0.9l-8.1 4.7c-0.3 0.1-0.7 0.1-1 0l-8.1-4.7c-0.3-0.2-0.5-0.5-0.5-0.9v-9.4c0-0.4 0.2-0.7 0.5-0.9l8.1-4.7c0.3-0.1 0.7-0.1 1 0l2 1.2q0.2 0.1 0.3 0 0.2-0.1 0.2-0.3v-12.5q0-0.3 0.3-0.4c0.1-0.1 0.3-0.1 0.4 0zm-5.5 18c0-0.1-0.1-0.2-0.2-0.3l-2.7-1.6q-0.2 0-0.3 0l-2.8 1.6q-0.1 0.1-0.1 0.3v3.2c0 0.1 0.1 0.2 0.1 0.2l2.8 1.6q0.1 0.1 0.3 0l2.7-1.6q0.2-0.1 0.2-0.2z"/><path fill-rule="evenodd" class="b" d="m84.1 20.7c0.3-0.2 0.5-0.5 0.5-0.9v-2.2c0-0.4-0.2-0.7-0.5-0.9l-8-4.7c-0.3-0.2-0.7-0.2-1 0l-8.1 4.7c-0.3 0.2-0.5 0.5-0.5 0.9v9.4c0 0.3 0.2 0.7 0.5 0.8l8.1 4.7c0.3 0.1 0.6 0.1 0.9 0l4.9-2.8c0.1-0.1 0.2-0.2 0.2-0.4 0-0.2-0.1-0.3-0.2-0.4l-8.2-4.7q-0.2-0.2-0.2-0.5v-2.9c0-0.2 0.1-0.4 0.2-0.4l2.6-1.5c0.1-0.1 0.3-0.1 0.5 0l2.5 1.5q0.3 0.1 0.3 0.4v2.3c0 0.2 0.1 0.3 0.2 0.4 0.2 0.1 0.4 0.1 0.5 0z"/><path fill-rule="evenodd" class="a" d="m75.5 20.3q0.1-0.1 0.2 0l1.5 0.9q0.1 0 0.1 0.1v1.8q0 0.2-0.1 0.2l-1.5 0.9q-0.1 0.1-0.2 0l-1.6-0.9q-0.1 0-0.1-0.2v-1.8q0-0.1 0.1-0.1z"/><path class="c" d="m31.7 12.1c-0.3-0.2-0.6-0.2-1 0l-8 4.6c-0.3 0.2-0.5 0.5-0.5 0.9v9.4c0 0.3 0.2 0.6 0.5 0.8l8 4.7c0.4 0.2 0.7 0.2 1 0l8.1-4.7c0.3-0.2 0.5-0.5 0.5-0.8v-9.4c0-0.4-0.2-0.7-0.5-0.9z"/><path class="d" d="m39.8 16.7l-8.1-4.6q-0.1-0.1-0.2-0.1l-9.1 15.6q0.1 0.1 0.3 0.2l8 4.7q0.4 0.2 0.8 0.1l8.5-15.7q-0.1-0.1-0.2-0.2z"/><path class="e" d="m39.8 27.8c0.2-0.1 0.4-0.4 0.5-0.6l-8.9-15.3c-0.2 0-0.5 0-0.7 0.2l-8 4.6 8.7 15.9q0.1 0 0.3-0.1z"/></g></svg>
