<svg version="1.2" xmlns="http://www.w3.org/2000/svg" viewBox="0 0 420 420" width="420" height="420"><style>.a{fill:#4dabcf}.b{fill:#4d77cf}</style><path class="a" d="m180.9 87.1l-69.1-34.9-75.9 37.9 71 35.7 74-38.7z"/><path class="a" d="m212.6 103.1l72.5 36.6-75.2 37.8-71.1-35.7 73.8-38.7z"/><path class="a" d="m309.5 52.8l74.5 37.3-66.7 33.5-72.6-36.7 64.8-34.1z"/><path class="a" d="m277.4 36.7l-67-33.7-66.4 33.2 69.1 34.8 64.3-34.3z"/><path class="a" d="m225 325.4v91.6l81.2-40.6-0.1-91.5-81.1 40.5z"/><path class="a" d="m306.1 252.9l-0.1-90.6-81 40.3v90.6l81.1-40.3z"/><path class="a" d="m403.6 235.9v91.9l-69.3 34.6v-91.5l69.3-35z"/><path class="a" d="m403.6 203.8v-90l-69.4 34.5 0.1 90.8 69.3-35.3z"/><path class="b" d="m196.3 202.6l-54.7-27.5v118.9c0 0-66.9-142.4-73.1-155.2-0.8-1.6-4.1-3.4-5-3.9-12-6.3-47.1-24.1-47.1-24.1v210.1l48.6 26v-109.8c0 0 66.2 127.2 66.9 128.6 0.7 1.4 7.3 14.8 14.4 19.5 9.5 6.3 50 30.6 50 30.6z"/></svg>