<svg xmlns="http://www.w3.org/2000/svg" version="1.2" viewBox="0 0 420 420">
  <style>
    .a{fill:#4dabcf}
  </style>
  <path d="m180.9 87.1-69.1-34.9-75.9 37.9 71 35.7zM212.6 103.1l72.5 36.6-75.2 37.8-71.1-35.7zM309.5 52.8 384 90.1l-66.7 33.5-72.6-36.7zM277.4 36.7 210.4 3 144 36.2 213.1 71zM225 325.4V417l81.2-40.6-.1-91.5zM306.1 252.9l-.1-90.6-81 40.3v90.6zM403.6 235.9v91.9l-69.3 34.6v-91.5zM403.6 203.8v-90l-69.4 34.5.1 90.8z" class="a"/>
  <path d="m196.3 202.6-54.7-27.5V294S74.7 151.6 68.5 138.8c-.8-1.6-4.1-3.4-5-3.9-12-6.3-47.1-24.1-47.1-24.1v210.1l48.6 26V237.1s66.2 127.2 66.9 128.6c.7 1.4 7.3 14.8 14.4 19.5 9.5 6.3 50 30.6 50 30.6z" style="fill:#4d77cf"/>
</svg>
