<svg xmlns="http://www.w3.org/2000/svg" width="209" height="209" version="1.2"><path d="M0 130.8h7.1v20.1H0zm10.6-23.4h7.1v25h-7.1zm0 27.9h7.1v21.2h-7.1zm10.6-51.5h7.1v37.6h-7.1zm0 40.9h7.1V138h-7.1zm0 22.2h7.1v9.6h-7.1zM31.8 67h7.1v27.3h-7.1zm0 30.4h7.1v36.1h-7.1zm10.5-35.5h7.2v19h-7.2zm0 21.9h7.2v26.3h-7.2zm0 29.7h7.2v23.9h-7.2zm10.6-55.8h7.2v34.6h-7.2zm0 38.1h7.2v10.6h-7.2zm0 13h7.2v35.7h-7.2zm10.6-55.3h7.2v9.6h-7.2zm0 12.5h7.2v51.4h-7.2zm0 54.8h7.2v16.4h-7.2zm0 19.8h7.2v11.7h-7.2zm10.6-2.6h7.1v18.5h-7.1zm0-52.1h7.1v40.3h-7.1zm0-32.9h7.1v29.4h-7.1zm10.6 92.9h7.1v10.6h-7.1zm0-92.4h7.1v47.7h-7.1zm0 51.1h7.1v21.6h-7.1zm10.6-49h7.1v15.9h-7.1zm0 19.3h7.1v51.3h-7.1zm10.5-18.2h7.2v30.9h-7.2zm0 34.4h7.2v26.3h-7.2zm0 29.7h7.2v13.8h-7.2zm10.6-62.6h7.1v46.1h-7.1zm0 49.6h7.1V145h-7.1zm10.5-51.1h7.1v21.5h-7.1zm0 25h7.1v56.5h-7.1zm0 60h7.1v13.2h-7.1zm10.6-3.1h7.1v17.9h-7.1zm0-44.4h7.1v13.3h-7.1zm0-38.1h7.1v34.7h-7.1zm10.7 2.6h7.1v43h-7.1zm0 88.2h7.1v9.6h-7.1zm10.4-85h7.2v13.2h-7.2zm0 16.7h7.2v22.1h-7.2zm10.7-14.1h7.2v9.6h-7.2zm0 12.5h7.2v9.1h-7.2zm0 12h7.2v12.7h-7.2zm10.6-21.4h7.2v35.7h-7.2zm10.5 9.4h7.2v25.2h-7.2zm10.5 12h7.1v9.6h-7.1z" style="fill:#fff"/></svg>