<svg xmlns="http://www.w3.org/2000/svg" version="1.2" viewBox="0 0 61 61"><defs><linearGradient id="g1" x2="1" gradientTransform="matrix(-34.283 -30.623 37.65 -42.15 45.632 44.463)" gradientUnits="userSpaceOnUse"><stop offset="0" stop-color="#a9c8ff"/><stop offset="1" stop-color="#c7e6ff"/></linearGradient><linearGradient id="g2" x2="1" gradientTransform="matrix(33.5 29.75 -36.681 41.304 11.292 13.889)" gradientUnits="userSpaceOnUse"><stop offset="0" stop-color="#2d4664"/><stop offset=".169" stop-color="#29405b"/><stop offset=".445" stop-color="#1e2f43"/><stop offset=".79" stop-color="#0c131b"/><stop offset="1"/></linearGradient></defs><style>.s4{fill:#2c5591}.s5{fill:#fff}</style><g id="g3746"><path id="line3744" d="M-34 94.5v-128" style="fill:none"/></g><path id="path3755" fill-rule="evenodd" d="M2.5 53c-.8 0-1.5-.3-2-.9-.4-.6-.6-1.4-.4-2.2l9-39C9.4 9.3 11 8 12.7 8h44.8c.8 0 1.5.3 2 .9.4.6.6 1.4.4 2.2l-9 39c-.3 1.6-1.9 2.9-3.6 2.9z" style="opacity:.8;fill:url(#g1)"/><g id="g3772"><g id="g3770"><path id="path3768" fill-rule="evenodd" d="M57.2 8.5H12.8c-1.4 0-2.7 1.1-3.1 2.5L.8 50c-.3 1.4.6 2.5 1.9 2.5h44.5c1.4 0 2.7-1.1 3.1-2.5l8.9-39c.3-1.4-.6-2.5-2-2.5" style="fill:url(#g2)"/></g></g><path id="path3774" fill-rule="evenodd" d="M30.1 42.3h10.8c1.2 0 2.3 1 2.3 2.4 0 1.3-1.1 2.3-2.3 2.3H30.1c-1.3 0-2.3-1-2.3-2.3 0-1.4 1-2.4 2.3-2.4" class="s4"/><path id="path3776" fill-rule="evenodd" d="M37.1 31.7c-.2.4-.6.8-1.3 1.3l-20 14.4c-1.1.8-2.7.5-3.5-.7-.9-1.1-.7-2.7.4-3.5l18.1-13.1v-.3L19.4 17.7c-.9-.9-.8-2.5.3-3.5 1-1 2.6-1 3.5 0l13.7 14.5c.7.8.8 2.1.2 3" class="s4"/><path id="path3778" fill-rule="evenodd" d="M36.6 31.2c-.2.4-.6.8-1.3 1.3l-20 14.4c-1.1.8-2.7.5-3.5-.7-.9-1.1-.7-2.7.4-3.5l18.1-13.1v-.3L18.9 17.2c-.9-.9-.8-2.5.3-3.5 1-1 2.6-1 3.5 0l13.7 14.5c.7.8.8 2.1.2 3" class="s5"/><path id="path3780" fill-rule="evenodd" d="M29.8 42h10.8c1.2 0 2.3 1 2.3 2.3 0 1.2-1.1 2.2-2.3 2.2H29.8c-1.3 0-2.3-1-2.3-2.3 0-1.2 1-2.2 2.3-2.2" class="s5"/></svg>