<svg xmlns="http://www.w3.org/2000/svg" version="1.2" viewBox="0 0 115 115"><defs><linearGradient id="a" gradientUnits="userSpaceOnUse"/><linearGradient id="b" x2="1" gradientTransform="matrix(61.326 53.272 -83.675 96.326 1 1)" href="#a"><stop stop-color="#5a9fd4"/><stop offset="1" stop-color="#306998"/></linearGradient><linearGradient id="c" x2="1" gradientTransform="matrix(-21.9 -31.283 50.615 -35.434 70.931 98.548)" href="#a"><stop stop-color="#ffd43b"/><stop offset="1" stop-color="#ffe873"/></linearGradient></defs><path fill-rule="evenodd" d="M69.9 2.1C77.2 3.3 83.3 8.8 83.3 16v25.6c0 7.5-6 13.6-13.4 13.6H43.1c-9.1 0-16.7 7.8-16.7 16.6v12.3h-9.3c-7.8 0-12.3-5.7-14.2-13.6-2.6-10.7-2.5-17 0-27.2 2.1-9 8.9-13.6 16.7-13.6h36.9v-3.4H29.7V16c0-7.7 2.1-11.9 13.4-13.9C47 1.4 51.3 1 55.9 1s9.4.3 14 1.1M36.4 14.3c0 2.9 2.2 5.1 5 5.1s5.1-2.2 5.1-5.1c0-2.8-2.3-5.1-5.1-5.1s-5 2.3-5 5.1" style="fill:url(#b)"/><path fill-rule="evenodd" d="M96.7 29.7c7.8 0 11.5 5.8 13.4 13.6 2.7 10.7 2.8 18.8 0 27.2-2.7 8.2-5.6 13.6-13.4 13.6H56.5v3.4h26.8v10.2c0 7.8-6.7 11.7-13.4 13.6-10.2 3-18.3 2.5-26.8 0-7.1-2-13.4-6.3-13.4-13.6V72.2c0-7.4 6.1-13.6 13.4-13.6h26.8c8.9 0 16.7-7.8 16.7-17V29.7zM66.6 99.4c0 2.8 2.2 5.1 5 5.1s5-2.3 5-5.1-2.2-5.1-5-5.1-5 2.3-5 5.1" style="fill:url(#c)"/></svg>