<svg xmlns="http://www.w3.org/2000/svg" version="1.2" viewBox="0 0 22 22"><style>.b{fill:none;stroke:#149eca}</style><path d="M11 13c-1.1 0-2-.9-2-2s.9-2 2-2 2 .9 2 2-.9 2-2 2" style="fill:#149eca"/><path d="M11 15.5c-5.5 0-10-2-10-4.5s4.5-4.5 10-4.5 10 2 10 4.5-4.5 4.5-10 4.5z" class="b"/><path d="M7.1 13.3C4.3 8.5 3.8 3.6 6 2.3c2.2-1.2 6.1 1.7 8.9 6.4 2.8 4.8 3.3 9.7 1.1 11-2.2 1.2-6.1-1.7-8.9-6.5z" class="b"/><path d="M7.1 8.8C9.9 4 13.8 1.1 16 2.3c2.2 1.3 1.7 6.2-1.1 10.9-2.8 4.8-6.7 7.7-8.9 6.5-2.2-1.3-1.7-6.2 1.1-11z" style="fill:none;stroke:#149eca;stroke-width:1"/></svg>