<svg version="1.2" xmlns="http://www.w3.org/2000/svg" viewBox="0 0 22 22"><style>.a{fill:#149eca}.b{fill:none;stroke:#149eca}.c{fill:none;stroke:#149eca;stroke-width:1}</style><path class="a" d="m11 13c-1.1 0-2-0.9-2-2 0-1.1 0.9-2 2-2 1.1 0 2 0.9 2 2 0 1.1-0.9 2-2 2z"/><path class="b" d="m11 15.5c-5.5 0-10-2-10-4.5 0-2.5 4.5-4.5 10-4.5 5.5 0 10 2 10 4.5 0 2.5-4.5 4.5-10 4.5z"/><path class="b" d="m7.1 13.3c-2.8-4.8-3.3-9.7-1.1-11 2.2-1.2 6.1 1.7 8.9 6.4 2.8 4.8 3.3 9.7 1.1 11-2.2 1.2-6.1-1.7-8.9-6.5z"/><path class="c" d="m7.1 8.8c2.8-4.8 6.7-7.7 8.9-6.5 2.2 1.3 1.7 6.2-1.1 10.9-2.8 4.8-6.7 7.7-8.9 6.5-2.2-1.3-1.7-6.2 1.1-11z"/></svg>
