<svg version="1.2" xmlns="http://www.w3.org/2000/svg" viewBox="0 0 98 98"><defs><linearGradient id="P" gradientUnits="userSpaceOnUse"/><linearGradient id="g1" x2="1" href="#P" gradientTransform="matrix(-74,-42.46,20.152,-35.122,90.33,55.37)"><stop stop-color="#dd1265"/><stop offset=".48" stop-color="#dd1265"/><stop offset=".94" stop-color="#fdb60d"/></linearGradient><linearGradient id="g2" x2="1" href="#P" gradientTransform="matrix(29.33,81,-40.755,14.758,46.33,8.76)"><stop offset=".14" stop-color="#087cfa"/><stop offset=".48" stop-color="#dd1265"/><stop offset=".96" stop-color="#087cfa"/></linearGradient><linearGradient id="g3" x2="1" href="#P" gradientTransform="matrix(21.66,77,-53.34,15.005,24.36,11.26)"><stop offset=".28" stop-color="#dd1265"/><stop offset=".97" stop-color="#fdb60d"/></linearGradient></defs><style>.a{fill:url(#g1)}.b{fill:url(#g2)}.c{fill:url(#g3)}.d{fill:#fff}</style><path class="a" d="m96.5 37.7l-67.3-37.3 45.1 66.9 9.2-6z"/><path class="b" d="m69.7 22.5l-8.5-20.6-18.6 18.4 7.6 66.6 18.1 9.5 28.2-16.5z"/><path class="c" d="m29.2 0.4l-28.7 19.3 10.7 65.9 27.5 10.6 35.6-28.9z"/><path  d="m18.5 18.5h60v60h-60z"/><path class="d" d="m26 67.2h22.5v3.7h-22.5z"/><path fill-rule="evenodd" class="d" d="m26 25.9h10.3q0.9 0 1.8 0.1 0.9 0.1 1.7 0.4 0.9 0.3 1.6 0.8 0.8 0.4 1.5 1 0.5 0.5 0.8 1.1 0.4 0.6 0.7 1.3 0.2 0.7 0.3 1.4 0.1 0.7 0.1 1.4 0.1 1.2-0.3 2.3-0.3 1.1-0.9 2-0.7 1-1.6 1.7-0.9 0.7-2 1l5.5 8.1h-5.8l-4.9-7.2h-3.8v7.2h-5zm10 11c2.4 0 3.8-1.3 3.8-3.2v-0.1c0-2.1-1.5-3.2-3.9-3.2h-4.9v6.5z"/><path fill-rule="evenodd" class="d" d="m48.9 25.9h8.8c7.1 0 12 4.9 12 11.2v0.1c0 6.4-4.9 11.3-12 11.3h-8.8zm5 4.5v13.6h3.9q1.3 0 2.6-0.4 1.3-0.5 2.3-1.5 0.9-0.9 1.4-2.2 0.5-1.3 0.5-2.7 0-1.4-0.5-2.7-0.5-1.3-1.4-2.2-1-1-2.3-1.5-1.3-0.5-2.6-0.4z"/></svg>
