<svg xmlns="http://www.w3.org/2000/svg" version="1.2" viewBox="0 0 98 98"><defs><linearGradient id="P" gradientUnits="userSpaceOnUse"/><linearGradient id="g1" x2="1" gradientTransform="matrix(-74 -42.46 20.152 -35.122 90.33 55.37)" href="#P"><stop stop-color="#dd1265"/><stop offset=".48" stop-color="#dd1265"/><stop offset=".94" stop-color="#fdb60d"/></linearGradient><linearGradient id="g2" x2="1" gradientTransform="matrix(29.33 81 -40.755 14.758 46.33 8.76)" href="#P"><stop offset=".14" stop-color="#087cfa"/><stop offset=".48" stop-color="#dd1265"/><stop offset=".96" stop-color="#087cfa"/></linearGradient><linearGradient id="g3" x2="1" gradientTransform="matrix(21.66 77 -53.34 15.005 24.36 11.26)" href="#P"><stop offset=".28" stop-color="#dd1265"/><stop offset=".97" stop-color="#fdb60d"/></linearGradient></defs><style>.d{fill:#fff}</style><path d="M96.5 37.7 29.2.4l45.1 66.9 9.2-6z" style="fill:url(#g1)"/><path d="M69.7 22.5 61.2 1.9 42.6 20.3l7.6 66.6 18.1 9.5 28.2-16.5z" style="fill:url(#g2)"/><path d="M29.2.4.5 19.7l10.7 65.9 27.5 10.6 35.6-28.9z" style="fill:url(#g3)"/><path d="M18.5 18.5h60v60h-60z"/><path d="M26 67.2h22.5v3.7H26z" class="d"/><path fill-rule="evenodd" d="M26 25.9h10.3q.9 0 1.8.1t1.7.4q.9.3 1.6.8.8.4 1.5 1 .5.5.8 1.1.4.6.7 1.3.2.7.3 1.4.1.7.1 1.4.1 1.2-.3 2.3-.3 1.1-.9 2-.7 1-1.6 1.7-.9.7-2 1l5.5 8.1h-5.8l-4.9-7.2H31v7.2h-5zm10 11c2.4 0 3.8-1.3 3.8-3.2v-.1c0-2.1-1.5-3.2-3.9-3.2H31v6.5zm12.9-11h8.8c7.1 0 12 4.9 12 11.2v.1c0 6.4-4.9 11.3-12 11.3h-8.8zm5 4.5V44h3.9q1.3 0 2.6-.4 1.3-.5 2.3-1.5.9-.9 1.4-2.2.5-1.3.5-2.7 0-1.4-.5-2.7-.5-1.3-1.4-2.2-1-1-2.3-1.5-1.3-.5-2.6-.4z" class="d"/></svg>