<svg xmlns="http://www.w3.org/2000/svg" version="1.2" viewBox="0 0 105 105"><path fill-rule="evenodd" d="M99.3 51.9C99.3 78 78.1 99.2 52 99.2 26 99.2 4.8 78 4.8 52 4.8 25.9 26 4.7 52.1 4.7c26 0 47.2 21.2 47.2 47.2M50.8 9.1q-.6.2-1.1.7-.4.4-.7 1-.2.6-.2 1.2c0 .8.3 1.6.9 2.2s1.4.9 2.2.9 1.6-.3 2.2-.9.9-1.4.9-2.2q0-.6-.2-1.2-.3-.5-.7-1-.4-.4-1-.7-.5-.2-1.1-.2-.7 0-1.2.2m2.9 10c-1.1 1.1-2.9 1-4-.1L45 14q-3.1.6-6.1 1.7-2.9 1-5.7 2.6-2.7 1.5-5.1 3.5-2.5 1.9-4.6 4.3h40.6c1.1 0 4.8.4 8.3 2.7 2.4 1.6 6 4.9 6 10.1 0 4.8-4 8.4-7.9 10.8 3.1 2.5 5.1 3.9 6.3 10.5.2 1.3 2.4 2.3 4.4 2.1 2.1-.2 4.5-1.2 4.5-5.4v-1.8q0-.6.6-.6h3.9q.1-.9.1-1.7v-3.3q-.1-.9-.2-1.7l-7-3.1c-1.4-.7-2.1-2.3-1.5-3.8l3.7-8.2Q83.2 29 80.4 26q-2.8-3.1-6.1-5.6-3.4-2.4-7.3-4-3.8-1.6-7.9-2.4zM13.6 37.2q-.5.3-1 .7-.4.4-.7 1-.2.6-.2 1.2c0 .8.3 1.6.9 2.2s1.3.9 2.2.9c.8 0 1.6-.3 2.2-.9s.9-1.4.9-2.2q0-.6-.2-1.1-.3-.6-.7-1-.4-.5-1-.7-.5-.3-1.1-.3-.7 0-1.3.2m74.2.2q-.6.2-1 .6-.5.5-.7 1-.3.6-.3 1.3c0 .8.3 1.6.9 2.2.6.5 1.4.9 2.2.9s1.6-.4 2.2-.9c.6-.6.9-1.4.9-2.2q0-.6-.2-1.2t-.6-1q-.5-.4-1-.7-.6-.2-1.2-.3-.6 0-1.2.3m-65.7 3.4c.6 1.4 0 3.1-1.4 3.7l-6.7 3q-.2 1.8-.3 3.7 0 1.8.2 3.6.1 1.9.5 3.7.3 1.8.8 3.6h10.9V37.6h-5.4zm21.2 4.4h12c2.6 0 5.7-.9 5.7-3.4 0-3-4.1-3.8-4.7-3.8H43.4zm0 17.4h9.1c.4 0 .6 0 .6.3V74c0 .3-.2.4-.6.4H21.1l.8 1 .8 1q.4.5.9 1 .4.5.9.9l6.4-1.4c1.5-.3 3 .7 3.3 2.2l1.6 7.3q3.8 1.7 7.8 2.6t8.1 1q4.2 0 8.2-.9 4.1-.8 7.8-2.5l1.6-7.3c.3-1.6 1.8-2.5 3.3-2.2l6.6 1.4 1-1q.4-.5.9-1l.8-1q.5-.6.9-1.1H66.6c-2.5 0-4.9-3.6-5.5-5.4-.6-1.6-1.5-6.6-1.9-8.2-1.2-5-5.1-5.3-6-5.3h-9.9zM27.6 81.2q-.6.2-1 .6-.5.5-.7 1.1-.2.5-.2 1.2c0 .8.3 1.6.9 2.2.5.6 1.3.9 2.2.9.8 0 1.6-.3 2.2-.9.5-.6.9-1.4.9-2.2q0-.6-.3-1.2-.2-.6-.6-1t-1-.7q-.5-.2-1.1-.2-.7 0-1.3.2m46.1.1q-.6.3-1.1.7-.4.4-.7 1-.2.6-.2 1.2c0 .8.3 1.6.9 2.2s1.4.9 2.2.9 1.6-.3 2.2-.9.9-1.4.9-2.2q0-.6-.2-1.1-.2-.6-.7-1-.4-.5-.9-.7-.6-.3-1.2-.3t-1.2.2" style="fill:#fff"/><path d="M96.4 47.1q.1.5.1 1l-.7-.5zm6.4 4.8-6.3 3.9q.2-1.9.2-3.9 0-1.9-.2-3.9zm-6.3 3.9q0 .5-.1.9v.1l-.6-.6zm-.1.9 5.4 5.1-6.9 2.6q1-3.8 1.5-7.6zm-1.6 7.7-.2 1-.5-.7zm4.1 7-7.3 1.2q.9-1.7 1.7-3.5.7-1.9 1.3-3.7zm-7.3 1.2q-.2.4-.5.8l-.3-.7zm2.6 7.5-7.4-.2q2.4-3.1 4.3-6.5zm-7.4-.3-.6.8-.2-.8zm1.1 8-7.2-1.7q1.5-1.2 2.9-2.6t2.6-2.9zm-7.2-1.7q-.4.3-.7.6l-.1-.8zm-.5 8L73.5 91q3.4-1.8 6.4-4.3zM73.5 91q-.4.3-.9.5l.2-.8zm-2 7.8-6-4.3q1.8-.6 3.6-1.3 1.8-.8 3.6-1.7zm-6-4.3q-.5.1-1 .3l.3-.8zm-3.6 7.2-5.1-5.4q3.9-.5 7.7-1.6zm-5.1-5.4q-.4.1-.9.1l.4-.6zm-4.8 6.5-3.9-6.3q2 .2 3.9.2 2 0 3.9-.2zm-3.9-6.3q-.5 0-.9-.1l.5-.6zm-6 5.3-2.6-6.9q3.8 1.1 7.7 1.5zm-2.6-6.9q-.5-.2-.9-.3l.6-.5zm-7 3.9-1.2-7.3q1.8.9 3.6 1.7 1.8.7 3.7 1.3zm-1.2-7.3q-.5-.2-.9-.4l.7-.4zm-7.7 2.6.3-7.4q3 2.5 6.4 4.3zm.3-7.4q-.4-.3-.7-.6l.7-.1zm-8 1.2 1.7-7.2q1.3 1.5 2.7 2.9 1.3 1.4 2.8 2.6zm1.7-7.2q-.3-.3-.6-.7l.8-.1zm-8-.5 3.1-6.7q1.9 3.4 4.3 6.5zm3.1-6.8q-.2-.4-.5-.8l.8.1zm-7.8-2 4.3-6q.6 1.8 1.4 3.7.7 1.8 1.6 3.5zm4.3-6q-.1-.5-.2-.9l.7.2zm-7.1-3.6 5.4-5q.4 3.8 1.5 7.6zm5.4-5.1q0-.4-.1-.9l.7.4zm-6.4-4.8L7.4 48q-.1 2-.1 3.9 0 2 .1 3.9zM7.4 48q.1-.4.1-.9l.6.5zm-5.3-6 7-2.5Q8 43.2 7.6 47.1zM9 39.4q.1-.5.3-.9l.4.6zm-4.1-6.9 7.3-1.2q-.9 1.7-1.6 3.5-.8 1.8-1.4 3.7zm7.3-1.2q.2-.5.5-.9l.3.7zm-2.6-7.7 7.4.3q-2.4 3-4.3 6.5zm7.4.2q.3-.4.6-.7l.2.7zm-1.1-8 7.2 1.7q-1.5 1.3-2.9 2.7-1.3 1.3-2.6 2.8zm7.2 1.7.8-.6v.8zm.5-8 6.7 3.1q0 0 0 0h.1q-3.5 1.9-6.5 4.3zm6.7 3.1q.4-.2.9-.4l-.2.7-.6-.3q0 0 0 0zm2-7.8 6.1 4.3q-1.9.6-3.7 1.4-1.8.7-3.6 1.6zm6.1 4.4q.4-.2.9-.3l-.3.7zm3.4-7.3 5.1 5.4q-3.9.4-7.7 1.5zm5.1 5.4q.5 0 .9-.1l-.4.7zM51.7 1l3.9 6.2q-1.9-.1-3.9-.1t-3.9.1zm3.9 6.3q.4.1.9.1v.1L56 8zm.9.1 5.1-5.3L64.2 9q-3.8-1.1-7.7-1.5l.1-.1zM64.2 9q.5.1.9.3l-.6.4zm7-4.1 1.2 7.3q-1.8-.9-3.6-1.6-1.8-.8-3.6-1.4zm1.2 7.3q.4.3.8.5l-.7.3zm7.5-2.6-.2 7.4q-3.1-2.4-6.5-4.3zm-.3 7.4.8.6-.8.2zm8-1.1-1.7 7.2q-1.2-1.5-2.6-2.8-1.4-1.4-2.9-2.7zm-1.7 7.2.6.8h-.8zm8 .5-3.1 6.8v-.1l-.1.1q-1.9-3.5-4.2-6.5zm-3.1 6.8q.3.4.5.8l-.8-.1.2-.7zm7.7 2.2-4.3 6q-.6-1.9-1.3-3.7-.8-1.8-1.7-3.5zm-4.3 6q.1.4.3.9l-.8-.3zm7.1 3.4-5.4 5.1q-.4-3.9-1.5-7.6z" style="fill:none;stroke:#fff;stroke-linecap:round;stroke-linejoin:round;stroke-width:3"/></svg>