<svg version="1.2" xmlns="http://www.w3.org/2000/svg" viewBox="0 0 105 105"><style>.a{fill:#fff}.b{fill:none;stroke:#fff;stroke-linecap:round;stroke-linejoin:round;stroke-width:3}</style><path fill-rule="evenodd" class="a" d="m99.3 51.9c0 26.1-21.2 47.3-47.3 47.3-26 0-47.2-21.2-47.2-47.2 0-26.1 21.2-47.3 47.3-47.3 26 0 47.2 21.2 47.2 47.2zm-48.5-42.8q-0.6 0.2-1.1 0.7-0.4 0.4-0.7 1-0.2 0.6-0.2 1.2c0 0.8 0.3 1.6 0.9 2.2 0.6 0.6 1.4 0.9 2.2 0.9 0.8 0 1.6-0.3 2.2-0.9 0.6-0.6 0.9-1.4 0.9-2.2q0-0.6-0.2-1.2-0.3-0.5-0.7-1-0.4-0.4-1-0.7-0.5-0.2-1.1-0.2-0.7 0-1.2 0.2zm2.9 10c-1.1 1.1-2.9 1-4-0.1l-4.7-5q-3.1 0.6-6.1 1.7-2.9 1-5.7 2.6-2.7 1.5-5.1 3.5-2.5 1.9-4.6 4.3h40.6c1.1 0 4.8 0.4 8.3 2.7 2.4 1.6 6 4.9 6 10.1 0 4.8-4 8.4-7.9 10.8 3.1 2.5 5.1 3.9 6.3 10.5 0.2 1.3 2.4 2.3 4.4 2.1 2.1-0.2 4.5-1.2 4.5-5.4v-1.8c0-0.4 0.2-0.6 0.6-0.6h3.9q0.1-0.9 0.1-1.7 0-0.8 0-1.7 0-0.8 0-1.6-0.1-0.9-0.2-1.7l-7-3.1c-1.4-0.7-2.1-2.3-1.5-3.8l3.7-8.2q-2.1-3.7-4.9-6.7-2.8-3.1-6.1-5.6-3.4-2.4-7.3-4-3.8-1.6-7.9-2.4zm-40.1 18.1q-0.5 0.3-1 0.7-0.4 0.4-0.7 1-0.2 0.6-0.2 1.2c0 0.8 0.3 1.6 0.9 2.2 0.6 0.6 1.3 0.9 2.2 0.9 0.8 0 1.6-0.3 2.2-0.9 0.6-0.6 0.9-1.4 0.9-2.2q0-0.6-0.2-1.1-0.3-0.6-0.7-1-0.4-0.5-1-0.7-0.5-0.3-1.1-0.3-0.7 0-1.3 0.2zm74.2 0.2q-0.6 0.2-1 0.6-0.5 0.5-0.7 1-0.3 0.6-0.3 1.3c0 0.8 0.3 1.6 0.9 2.2 0.6 0.5 1.4 0.9 2.2 0.9 0.8 0 1.6-0.4 2.2-0.9 0.6-0.6 0.9-1.4 0.9-2.2q0-0.6-0.2-1.2-0.2-0.6-0.6-1-0.5-0.4-1-0.7-0.6-0.2-1.2-0.3-0.6 0-1.2 0.3zm-65.7 3.4c0.6 1.4 0 3.1-1.4 3.7l-6.7 3q-0.2 1.8-0.3 3.7 0 1.8 0.2 3.6 0.1 1.9 0.5 3.7 0.3 1.8 0.8 3.6h10.9v-24.5h-5.4zm21.2 4.4h12c2.6 0 5.7-0.9 5.7-3.4 0-3-4.1-3.8-4.7-3.8h-12.9zm0 17.4h9.1c0.4 0 0.6 0 0.6 0.3v11.1c0 0.3-0.2 0.4-0.6 0.4h-31.3q0.4 0.5 0.8 1 0.4 0.5 0.8 1 0.4 0.5 0.9 1 0.4 0.5 0.9 0.9l6.4-1.4c1.5-0.3 3 0.7 3.3 2.2l1.6 7.3q3.8 1.7 7.8 2.6 4 0.9 8.1 1 4.2 0 8.2-0.9 4.1-0.8 7.8-2.5l1.6-7.3c0.3-1.6 1.8-2.5 3.3-2.2l6.6 1.4q0.5-0.5 1-1 0.4-0.5 0.9-1 0.4-0.5 0.8-1 0.5-0.6 0.9-1.1h-16.2c-2.5 0-4.9-3.6-5.5-5.4-0.6-1.6-1.5-6.6-1.9-8.2-1.2-5-5.1-5.3-6-5.3h-9.9zm-15.7 18.6q-0.6 0.2-1 0.6-0.5 0.5-0.7 1.1-0.2 0.5-0.2 1.2c0 0.8 0.3 1.6 0.9 2.2 0.5 0.6 1.3 0.9 2.2 0.9 0.8 0 1.6-0.3 2.2-0.9 0.5-0.6 0.9-1.4 0.9-2.2q0-0.6-0.3-1.2-0.2-0.6-0.6-1-0.4-0.4-1-0.7-0.5-0.2-1.1-0.2-0.7 0-1.3 0.2zm46.1 0.1q-0.6 0.3-1.1 0.7-0.4 0.4-0.7 1-0.2 0.6-0.2 1.2c0 0.8 0.3 1.6 0.9 2.2 0.6 0.6 1.4 0.9 2.2 0.9 0.8 0 1.6-0.3 2.2-0.9 0.6-0.6 0.9-1.4 0.9-2.2q0-0.6-0.2-1.1-0.2-0.6-0.7-1-0.4-0.5-0.9-0.7-0.6-0.3-1.2-0.3-0.6 0-1.2 0.2z"/><path fill-rule="evenodd" class="b" d="m95.8 47.6l0.7 0.5q0-0.5-0.1-1zm7 4.3l-6.3 3.9q0.2-1.9 0.2-3.9 0-1.9-0.2-3.9zm-7 4.3l0.6 0.6q0.1-0.5 0.1-1zm6 5.6l-6.9 2.6q1-3.8 1.5-7.7zm-7.7 2.9l0.5 0.7q0.1-0.5 0.2-1zm4.8 6.7l-7.3 1.2q0.9-1.7 1.7-3.5 0.7-1.9 1.3-3.7zm-8.1 1.3l0.3 0.7q0.3-0.4 0.5-0.8zm3.4 7.4l-7.4-0.2q2.4-3.1 4.3-6.5zm-8.2-0.3l0.2 0.8q0.3-0.4 0.6-0.8zm1.9 8l-7.2-1.7q1.5-1.2 2.9-2.6 1.4-1.4 2.6-2.9zm-8-1.9l0.1 0.8q0.3-0.3 0.7-0.6zm0.3 8.2l-6.7-3.1q3.4-1.8 6.4-4.3zm-7.4-3.4l-0.2 0.8q0.5-0.2 0.9-0.5zm-1.3 8.1l-6-4.3q1.8-0.6 3.6-1.3 1.8-0.8 3.6-1.7zm-6.7-4.8l-0.3 0.8q0.5-0.2 1-0.3zm-2.9 7.7l-5.1-5.4q3.9-0.5 7.7-1.6zm-5.6-5.9l-0.4 0.6q0.5 0 0.9-0.1zm-4.3 7l-3.9-6.3q2 0.2 3.9 0.2 2 0 3.9-0.2zm-4.3-7l-0.5 0.6q0.4 0.1 0.9 0.1zm-5.6 6l-2.6-6.9q3.8 1.1 7.7 1.5zm-2.9-7.7l-0.6 0.5q0.4 0.1 0.9 0.3zm-6.7 4.7l-1.2-7.3q1.8 0.9 3.6 1.7 1.8 0.7 3.7 1.3zm-1.4-8.1l-0.7 0.4q0.4 0.2 0.9 0.4zm-7.5 3.4l0.3-7.4q3 2.5 6.4 4.3zm0.3-8.1l-0.7 0.1q0.3 0.3 0.7 0.6zm-8 1.9l1.7-7.2q1.3 1.5 2.7 2.9 1.3 1.4 2.8 2.6zm1.9-8l-0.8 0.1q0.3 0.4 0.6 0.7zm-8.2 0.3l3.1-6.7q1.9 3.4 4.3 6.5zm3.4-7.5l-0.8-0.1q0.3 0.4 0.5 0.8zm-8.1-1.3l4.3-6q0.6 1.8 1.4 3.7 0.7 1.8 1.6 3.5zm4.8-6.7l-0.7-0.2q0.1 0.4 0.2 0.9zm-7.6-2.9l5.4-5q0.4 3.8 1.5 7.6zm6-5.6l-0.7-0.4q0.1 0.5 0.1 0.9zm-7-4.3l6.3-3.9q-0.1 2-0.1 3.9 0 2 0.1 3.9zm7-4.3l-0.6-0.5q0 0.5-0.1 0.9zm-6-5.6l7-2.5q-1.1 3.7-1.5 7.6zm7.6-2.9l-0.4-0.6q-0.2 0.4-0.3 0.9zm-4.8-6.6l7.3-1.2q-0.9 1.7-1.6 3.5-0.8 1.8-1.4 3.7zm8.1-1.4l-0.3-0.7q-0.3 0.4-0.5 0.9zm-3.4-7.5l7.4 0.3q-2.4 3-4.3 6.5zm8.2 0.2l-0.2-0.7q-0.3 0.3-0.6 0.7zm-1.9-8l7.2 1.7q-1.5 1.3-2.9 2.7-1.3 1.3-2.6 2.8zm8 1.9v-0.8q-0.4 0.3-0.8 0.6zm-0.3-8.2l6.8 3.1q-3.5 1.9-6.5 4.3zm7.4 3.4l0.2-0.7q-0.5 0.2-0.9 0.4zm1.3-8.1l6.1 4.3q-1.9 0.6-3.7 1.4-1.8 0.7-3.6 1.6zm6.7 4.8l0.3-0.7q-0.5 0.1-0.9 0.3zm2.8-7.7l5.1 5.4q-3.9 0.4-7.7 1.5zm5.6 6l0.4-0.7q-0.4 0.1-0.9 0.1zm4.3-6.9l3.9 6.2q-1.9-0.1-3.9-0.1-2 0-3.9 0.1zm4.3 7l0.6-0.6q-0.5 0-1-0.1zm5.6-5.9l2.6 6.9q-3.8-1.1-7.7-1.5zm2.9 7.6l0.6-0.4q-0.4-0.2-0.9-0.3zm6.7-4.8l1.2 7.3q-1.8-0.9-3.6-1.6-1.8-0.8-3.6-1.4zm1.3 8.1l0.7-0.3q-0.4-0.2-0.8-0.5zm7.4-3.4l-0.2 7.4q-3.1-2.4-6.5-4.3zm-0.3 8.2l0.8-0.2q-0.4-0.3-0.8-0.6zm8-1.9l-1.7 7.2q-1.2-1.5-2.6-2.8-1.4-1.4-2.9-2.7zm-1.9 8h0.8q-0.3-0.4-0.6-0.8zm8.2-0.3l-3.1 6.8q-1.9-3.5-4.3-6.5zm-3.4 7.5l0.8 0.1q-0.2-0.4-0.5-0.9zm8.1 1.4l-4.3 6q-0.6-1.9-1.3-3.7-0.8-1.8-1.7-3.5zm-4.8 6.6l0.8 0.3q-0.2-0.5-0.3-0.9zm7.6 2.8l-5.4 5.1q-0.4-3.9-1.5-7.6z"/></svg>
