<svg xmlns="http://www.w3.org/2000/svg" version="1.2" viewBox="0 0 98 98"><path fill-rule="evenodd" d="M96.8 52c-.6 8.9-3.7 17.5-8.9 24.7-5.2 7.3-12.3 13-20.5 16.5-8.3 3.5-17.3 4.6-26.1 3.3-8.9-1.4-17.2-5.1-24-10.9L15.5 84C5.9 75.1.3 62.7-.1 49.6c-.3-13 4.6-25.7 13.8-35.1C22.8 5.2 35.4-.1 48.5-.1c13.1.1 25.6 5.4 34.7 14.8q.8-1.1 1.5-2.1.7-1.1 1.4-2.3.6-1.1 1.2-2.3t1.1-2.4c6.1 18.6 9.8 34.2 8.4 46.4M23.2 83q.2-.8.2-1.6-.1-.8-.5-1.6-.4-.7-1-1.2c-1.3-1-3.1-1.2-4.6-.4-1.4.8-2.3 2.4-2.1 4 .2 1.7 1.3 3.1 2.9 3.5 1.6.5 3.3 0 4.4-1.3q.5-.6.7-1.4m64.7-72.4c-5 10.5-17.4 18.5-28.1 21-10.1 2.4-18.9.4-28.2 4-21.2 8.1-20.8 33.3-9.2 39l.7.4s17.1-3.4 26.6-6.9c13.8-5.1 29-17.7 34-32.3C81.1 51 68 65.7 54.9 72.4c-7 3.6-12.4 4.4-23.9 8.4-1.4.5-2.5 1-2.5 1 2.9-.4 5.8-.6 5.8-.6 16.3-.8 41.9 4.6 53.8-11.3 12.2-16.2 5.4-42.4-.2-59.3" style="fill:#6db33f"/></svg>