<svg version="1.2" xmlns="http://www.w3.org/2000/svg" viewBox="0 0 98 98"><style>.a{fill:#6db33f}</style><path fill-rule="evenodd" class="a" d="m96.8 52c-0.6 8.9-3.7 17.5-8.9 24.7-5.2 7.3-12.3 13-20.5 16.5-8.3 3.5-17.3 4.6-26.1 3.3-8.9-1.4-17.2-5.1-24-10.9l-1.8-1.6c-9.6-8.9-15.2-21.3-15.6-34.4-0.3-13 4.6-25.7 13.8-35.1 9.1-9.3 21.7-14.6 34.8-14.6 13.1 0.1 25.6 5.4 34.7 14.8q0.8-1.1 1.5-2.1 0.7-1.1 1.4-2.3 0.6-1.1 1.2-2.3 0.6-1.2 1.1-2.4c6.1 18.6 9.8 34.2 8.4 46.4zm-73.6 31q0.2-0.8 0.2-1.6-0.1-0.8-0.5-1.6-0.4-0.7-1-1.2c-1.3-1-3.1-1.2-4.6-0.4-1.4 0.8-2.3 2.4-2.1 4 0.2 1.7 1.3 3.1 2.9 3.5 1.6 0.5 3.3 0 4.4-1.3q0.5-0.6 0.7-1.4zm64.7-72.4c-5 10.5-17.4 18.5-28.1 21-10.1 2.4-18.9 0.4-28.2 4-21.2 8.1-20.8 33.3-9.2 39l0.7 0.4c0 0 17.1-3.4 26.6-6.9 13.8-5.1 29-17.7 34-32.3-2.6 15.2-15.7 29.9-28.8 36.6-7 3.6-12.4 4.4-23.9 8.4-1.4 0.5-2.5 1-2.5 1 2.9-0.4 5.8-0.6 5.8-0.6 16.3-0.8 41.9 4.6 53.8-11.3 12.2-16.2 5.4-42.4-0.2-59.3z"/></svg>
