<svg xmlns="http://www.w3.org/2000/svg" version="1.2" viewBox="0 0 128 128"><path d="M0 6c0-3.3 2.7-6 6-6h116c3.3 0 6 2.7 6 6v116c0 3.3-2.7 6-6 6H6c-3.3 0-6-2.7-6-6z" style="fill:#3178c6"/><path fill-rule="evenodd" d="M82.5 104.3q4.5 1.6 9 1.6 2.7 0 4.7-.5t3.3-1.4q1.3-.8 2-2 .6-1.1.6-2.5 0-1.8-1-3.3-1.1-1.4-2.9-2.6-1.8-1.3-4.3-2.4-2.5-1.2-5.3-2.3-7.4-3.1-11-7.5Q74 76.9 74 70.7q0-4.9 2-8.5 1.9-3.5 5.3-5.8t7.9-3.3q4.4-1.1 9.4-1.1 4.9 0 8.7.6t6.9 1.8v13.1q-1.5-1.1-3.4-1.9-1.8-.8-3.8-1.4-2-.5-3.9-.8-2-.3-3.7-.3-2.4 0-4.4.5-1.9.5-3.3 1.3t-2.1 2q-.7 1.1-.7 2.6 0 1.6.8 2.8.8 1.3 2.3 2.4 1.6 1.1 3.8 2.2 2.1 1 4.9 2.2 3.8 1.6 6.8 3.3 2.9 1.8 5.1 4.1 2.1 2.2 3.3 5.1 1.1 2.8 1.1 6.6 0 5.3-2 8.9-2 3.5-5.4 5.8-3.4 2.2-7.9 3.1-4.5 1-9.6 1t-9.8-.9q-4.6-.9-8-2.6v-14q3.8 3.2 8.2 4.8M50.7 116H36.2V64.6H18V53h51v11.6H50.7z" style="fill:#fff"/></svg>