<svg version="1.2" xmlns="http://www.w3.org/2000/svg" viewBox="0 0 128 128"><style>.a{fill:#3178c6}.b{fill:#fff}</style><path class="a" d="m0 6c0-3.3 2.7-6 6-6h116c3.3 0 6 2.7 6 6v116c0 3.3-2.7 6-6 6h-116c-3.3 0-6-2.7-6-6z"/><path fill-rule="evenodd" class="b" d="m82.5 104.3q4.5 1.6 9 1.6 2.7 0 4.7-0.5 2-0.5 3.3-1.4 1.3-0.8 2-2 0.6-1.1 0.6-2.5 0-1.8-1-3.3-1.1-1.4-2.9-2.6-1.8-1.3-4.3-2.4-2.5-1.2-5.3-2.3-7.4-3.1-11-7.5-3.6-4.5-3.6-10.7 0-4.9 2-8.5 1.9-3.5 5.3-5.8 3.4-2.3 7.9-3.3 4.4-1.1 9.4-1.1 4.9 0 8.7 0.6 3.8 0.6 6.9 1.8v13.1q-1.5-1.1-3.4-1.9-1.8-0.8-3.8-1.4-2-0.5-3.9-0.8-2-0.3-3.7-0.3-2.4 0-4.4 0.5-1.9 0.5-3.3 1.3-1.4 0.8-2.1 2-0.7 1.1-0.7 2.6 0 1.6 0.8 2.8 0.8 1.3 2.3 2.4 1.6 1.1 3.8 2.2 2.1 1 4.9 2.2 3.8 1.6 6.8 3.3 2.9 1.8 5.1 4.1 2.1 2.2 3.3 5.1 1.1 2.8 1.1 6.6 0 5.3-2 8.9-2 3.5-5.4 5.8-3.4 2.2-7.9 3.1-4.5 1-9.6 1-5.1 0-9.8-0.9-4.6-0.9-8-2.6v-14q3.8 3.2 8.2 4.8zm-31.8 11.7h-14.5v-51.4h-18.2v-11.6h51v11.6h-18.3z"/></svg>
