<svg version="1.2" xmlns="http://www.w3.org/2000/svg" viewBox="0 0 360 169"><style>.a{fill:#2774ae}.b{fill:#fff}</style><path class="a" d="m0 0h360v168.8h-360z"/><path class="b" d="m57.6 100.7q-0.1-1.1-0.2-2.2 0-1 0-2.1-0.1-1.1-0.1-2.1 0-1.1 0.1-2.2l4.1-46h15l-4.1 46.4c-0.9 10 3 17.3 13.1 17.3 10.2 0 15.7-7.3 16.5-16.2l4.3-47.5h15.1l-4.2 46.9c-1.7 18-13.6 31.5-33 31.5-15.1 0-24.8-9.7-26.6-23.8"/><path class="b" d="m124.8 85.1c2-22.1 16.9-40.5 42.7-40.5q2.6 0 5.2 0.4 2.6 0.3 5.1 1 2.5 0.8 4.9 1.9 2.4 1.1 4.5 2.5l-1.7 18.2c-5.9-7.8-13-9-19.5-9-16 0-24.8 11.1-26 25.2-1.3 13.7 5.8 24.8 21.3 24.8 6.8 0 14-2 21.5-9.4l-1.6 18.7c-7.4 4-14.2 5.8-21 5.8-25.5 0-37.2-18.9-35.4-39.6z"/><path class="b" d="m199.3 46.1h15l-5.5 62.5h21.5c1.6 0 6.7-0.1 8-0.1-0.1 0.7-1.3 14.4-1.3 14.4h-44.5z"/><path fill-rule="evenodd" class="b" d="m309.6 122.9h-16l-3.6-12.2h-29l-5.8 12.1h-16l41.2-80.2h1zm-32-48.2c-0.2 0.6-10.4 23-10.4 23h19c0 0-5.8-19.4-6.7-22.9q-0.1-0.4-0.2-0.8-0.1-0.4-0.1-0.8-0.1-0.4-0.2-0.9 0-0.4 0-0.8h-0.3q-0.1 0.4-0.2 0.8-0.1 0.5-0.3 0.9-0.1 0.4-0.3 0.8-0.1 0.4-0.3 0.7z"/></svg>
