<svg xmlns="http://www.w3.org/2000/svg" version="1.2" viewBox="0 0 410 410"><defs><linearGradient id="a" gradientUnits="userSpaceOnUse"/><linearGradient id="b" x2="1" gradientTransform="matrix(229 311 -285.094 209.924 6 36)" href="#a"><stop stop-color="#41d1ff"/><stop offset="1" stop-color="#bd34fe"/></linearGradient><linearGradient id="c" x2="1" gradientTransform="matrix(41.425 284.171 -172.088 25.086 194.651 11.818)" href="#a"><stop stop-color="#ffea83"/><stop offset=".08" stop-color="#ffdd35"/><stop offset="1" stop-color="#ffa800"/></linearGradient></defs><path d="m399.6 62.5-184 329c-3.8 6.8-13.5 6.9-17.4.1L10.6 62.6C6.4 55.2 12.7 46.3 21 47.8l184.2 32.9q1.8.3 3.6 0l180.3-32.9c8.3-1.5 14.7 7.3 10.5 14.7" style="fill:url(#b)"/><path d="M293 4.6 156.8 31.3c-2.2.4-3.9 2.3-4 4.6l-8.4 141.4c-.2 3.4 2.9 5.9 6.1 5.2l37.9-8.8c3.6-.8 6.8 2.4 6 5.9l-11.2 55.2c-.8 3.7 2.7 6.9 6.3 5.8l23.4-7.2c3.7-1.1 7.2 2.1 6.4 5.8l-17.9 86.7c-1.1 5.4 6.1 8.3 9.1 3.7l2-3.1 111-221.4c1.8-3.7-1.4-8-5.5-7.2l-39 7.6c-3.7.7-6.8-2.8-5.7-6.3l25.4-88.3c1.1-3.6-2.1-7-5.7-6.3" style="fill:url(#c)"/></svg>