<svg version="1.2" xmlns="http://www.w3.org/2000/svg" viewBox="0 0 410 410"><defs><linearGradient id="P" gradientUnits="userSpaceOnUse"/><linearGradient id="g1" x2="1" href="#P" gradientTransform="matrix(229,311,-285.094,209.924,6,36)"><stop stop-color="#41d1ff"/><stop offset="1" stop-color="#bd34fe"/></linearGradient><linearGradient id="g2" x2="1" href="#P" gradientTransform="matrix(41.425,284.171,-172.088,25.086,194.651,11.818)"><stop stop-color="#ffea83"/><stop offset=".08" stop-color="#ffdd35"/><stop offset="1" stop-color="#ffa800"/></linearGradient></defs><style>.a{fill:url(#g1)}.b{fill:url(#g2)}</style><path class="a" d="m399.6 62.5l-184 329c-3.8 6.8-13.5 6.9-17.4 0.1l-187.6-329c-4.2-7.4 2.1-16.3 10.4-14.8l184.2 32.9q1.8 0.3 3.6 0l180.3-32.9c8.3-1.5 14.7 7.3 10.5 14.7z"/><path class="b" d="m293 4.6l-136.2 26.7c-2.2 0.4-3.9 2.3-4 4.6l-8.4 141.4c-0.2 3.4 2.9 5.9 6.1 5.2l37.9-8.8c3.6-0.8 6.8 2.4 6 5.9l-11.2 55.2c-0.8 3.7 2.7 6.9 6.3 5.8l23.4-7.2c3.7-1.1 7.2 2.1 6.4 5.8l-17.9 86.7c-1.1 5.4 6.1 8.3 9.1 3.7l2-3.1 111-221.4c1.8-3.7-1.4-8-5.5-7.2l-39 7.6c-3.7 0.7-6.8-2.8-5.7-6.3l25.4-88.3c1.1-3.6-2.1-7-5.7-6.3z"/></svg>
