<svg xmlns="http://www.w3.org/2000/svg" version="1.2" viewBox="0 0 100 100"><defs><linearGradient id="a" gradientUnits="userSpaceOnUse"/><linearGradient id="c" x2="1" gradientTransform="matrix(0 99.484 -99.999 0 49.939 .258)" href="#a"><stop stop-color="#fff"/><stop offset="1" stop-color="#fff" stop-opacity="0"/></linearGradient><clipPath id="b" clipPathUnits="userSpaceOnUse"><path d="M68.77 97.92 29.36 61.96 12.19 74.99a4.17 4.17 0 0 1-5.32-.24l-5.51-5a4.184 4.184 0 0 1 0-6.17L16.25 50 1.36 36.42a4.184 4.184 0 0 1 0-6.17l5.51-5a4.17 4.17 0 0 1 5.32-.24l17.17 13.03L68.77 2.08q.35-.35.74-.63a6.242 6.242 0 0 1 6.36-.58l20.59 9.91a6.254 6.254 0 0 1 3.54 5.63v67.18c0 2.4-1.38 4.59-3.54 5.63l-20.59 9.91c-1.59.76-3.38.8-4.96.19q-1.19-.47-2.14-1.4m6.25-70.62L45.11 50l29.91 22.7z"/></clipPath></defs><g clip-path="url(#b)"><path d="M96.5 10.8 75.9.9c-2.4-1.2-5.3-.7-7.1 1.2L1.3 63.6c-1.8 1.6-1.8 4.5 0 6.1l5.5 5.1c1.5 1.3 3.7 1.4 5.3.2l81.3-61.6c2.7-2.1 6.6-.2 6.6 3.3v-.3c0-2.4-1.4-4.6-3.5-5.6" style="fill:#0065a9"/><path d="m96.5 89.2-20.6 9.9c-2.4 1.2-5.3.7-7.1-1.2L1.3 36.4c-1.8-1.6-1.8-4.5 0-6.1l5.5-5.1c1.5-1.3 3.7-1.4 5.3-.2l81.3 61.6c2.7 2.1 6.6.2 6.6-3.3v.3c0 2.4-1.4 4.6-3.5 5.6" style="fill:#007acc"/><path d="M75.9 99.1c-2.4 1.2-5.3.7-7.2-1.2 2.4 2.3 6.3.7 6.3-2.6V4.7c0-3.3-3.9-4.9-6.3-2.6C70.6.2 73.5-.3 75.9.9l20.6 9.9c2.1 1 3.5 3.2 3.5 5.6v67.2c0 2.4-1.4 4.6-3.5 5.6z" style="fill:#1f9cf0"/><g style="opacity:.3"><path fill-rule="evenodd" d="M68.7 97.9 29.3 62 12.1 75c-1.6 1.2-3.8 1.1-5.3-.2l-5.5-5.1c-1.8-1.6-1.8-4.5 0-6.1L16.2 50 1.3 36.4c-1.8-1.6-1.8-4.5 0-6.1l5.5-5.1c1.5-1.3 3.7-1.4 5.3-.2l17.2 13L68.7 2.1q.4-.4.8-.7C71.3.1 73.7-.1 75.8.9l20.6 9.9c2.2 1 3.5 3.2 3.5 5.6v67.2c0 2.4-1.3 4.6-3.5 5.6l-20.6 9.9c-1.6.8-3.4.8-4.9.2q-1.2-.4-2.2-1.4M75 27.3 45 50l30 22.7z" style="mix-blend-mode:overlay;fill:url(#c)"/></g></g></svg>