<svg version="1.2" xmlns="http://www.w3.org/2000/svg" viewBox="0 0 83 83" width="500" height="500">
	<title>CMake-Logo-svg</title>
	<style>
		.s0 { fill: #0068c7 } 
		.s1 { fill: #3dae2b } 
		.s2 { fill: #f32735 } 
		.s3 { fill: #dce3eb } 
		.s4 { fill: #003764 } 
	</style>
	<g id="Layer_2-2">
		<g id="Layer">
			<path id="Layer" class="s0" d="m39.5 0l-39.5 78.6 43.3-36.8-3.8-41.8z"/>
			<path id="Layer" class="s1" d="m79 82.1l-53.4-21.5-25.4 21.5h78.8z"/>
			<path id="Layer" class="s2" d="m82.1 80.3l-39.7-79 5.9 65.4 33.8 13.6z"/>
			<path id="Layer" class="s3" d="m43.8 45l-15.8 13.5 17.6 7.1-1.8-20.6z"/>
			<g id="Layer">
				<path id="Layer" class="s4" d="m116.1 65.9c5.8 0 10.6-1.9 12.9-3.6l0.8 5.4c-3 2-6.8 3.6-13.5 3.6-14.3 0-20.4-7.6-20.4-24.4 0-16.9 5.6-25.4 20.2-25.4 6.4 0 10 1.8 13.2 3.5l-0.8 5.6c-3.4-2-7.4-3.6-12.6-3.6-10.7 0-14.1 6.5-14.1 19.5 0 12.2 3 19.4 14.3 19.4z"/>
				<path id="Layer" class="s4" d="m137.4 22.2h5.7l16 26 16-26h5.6v48.4h-5.8v-38l-15.3 24.9h-1.2l-15.2-24.8v37.9h-5.8c0 0 0-48.4 0-48.4z"/>
				<path id="Layer" fill-rule="evenodd" class="s4" d="m217.1 69c-3.5 1.3-8.9 2.2-14 2.2-8.9 0-14.8-3-14.8-11.3 0-8.4 5.9-11.4 15.9-11.4h7.3v-3.6c0-5.1-3.5-6.7-9.3-6.7-4.3 0-7.9 0.8-10.1 1.6l-0.9-5.1c3-0.9 6.7-1.6 11.2-1.6 8.4 0 14.7 3 14.7 12.2v23.7zm-5.6-16.1h-7.2c-6.8 0-10.4 1.7-10.4 6.9 0 5.2 3.6 6.6 9 6.6 2.7 0 6.2-0.4 8.6-1.1z"/>
				<path id="Layer" class="s4" d="m225.4 18.4h5.6v52.2h-5.6zm22.6 15.3h7.1l-15.3 17.4 16.9 19.5h-7.2l-16.8-19.5z"/>
				<path id="Layer" fill-rule="evenodd" class="s4" d="m289.6 54.4h-25.2v0.3c0 7.8 4.5 11.2 12.2 11.2 4.3 0 8.8-1 11.5-2.5l0.9 5.3c-3.6 1.6-8 2.5-12.5 2.5-11.8 0-17.8-5.9-17.8-19 0-10.6 3.9-19.1 16-19.1 9.7 0 15.5 5.4 15.5 16.1 0 1.6-0.2 3.6-0.6 5.2zm-25.2-4.8h20.4v-0.4c0-7.9-4-11.1-10.2-11.1-6.3 0-10.2 3.1-10.2 11.1z"/>
			</g>
		</g>
	</g>
</svg>