<svg xmlns="http://www.w3.org/2000/svg" version="1.2" viewBox="0 0 600 600">
  <style>
    .a,.b{fill:none;stroke:#000;stroke-miterlimit:10;stroke-width:5}.b{stroke-miterlimit:100}
  </style>
  <path d="m467.4 165.7-22.9 100.6-17.6-22 13-56.6H246.1l17.6-22z" class="a"/>
  <path d="m299.9 85 64.3 80.7h-28.1l-36.2-45.4L179 271.8l-6.2-27.5z" class="a"/>
  <path d="M132.3 165.7h103.2l-17.5 22h-58.1l43 188.9-25.3-12.2z" class="a"/>
  <path d="m90.9 347 64.4-80.6 6.3 27.4-36.3 45.4 174.5 84.1-25.3 12.2z" class="a"/>
  <path d="M206.9 492.5 184 391.8l25.3 12.2 12.9 56.7 174.6-84-6.3 27.4z" class="a"/>
  <path d="m392.9 492.5-93-44.9 25.4-12.2 52.3 25.3 43.2-188.9 17.6 22z" class="a"/>
  <path d="m508.8 347-93 44.7 6.3-27.4 52.3-25.1-120.6-151.6h28.1z" class="a"/>
  <path d="M299.5 537C168.2 537 62 430.8 62 299.5S168.2 62 299.5 62 537 168.2 537 299.5 430.8 537 299.5 537z" class="b"/>
  <path d="M299.5 557C157.1 557 42 441.9 42 299.5S157.1 42 299.5 42 557 157.1 557 299.5 441.9 557 299.5 557z" class="b"/>
</svg>
