<svg xmlns="http://www.w3.org/2000/svg" version="1.2" viewBox="0 0 515 515"><style>.s0{fill:none;stroke:#000;stroke-miterlimit:10;stroke-width:5}</style><path id="Layer" fill-rule="evenodd" d="m424.4 122.7-22.9 100.6-17.6-22 13-56.6H203.1l17.6-22z" class="s0"/><path fill-rule="evenodd" d="m256.9 42 64.3 80.7h-28.1l-36.2-45.4L136 228.8l-6.2-27.5z" class="s0"/><path fill-rule="evenodd" d="M89.3 122.7h103.2l-17.5 22h-58.1l43 188.9-25.3-12.2z" class="s0"/><path fill-rule="evenodd" d="m47.9 304 64.4-80.6 6.3 27.4-36.3 45.4 174.5 84.1-25.3 12.2z" class="s0"/><path fill-rule="evenodd" d="M163.9 449.5 141 348.8l25.3 12.2 12.9 56.7 174.6-84-6.3 27.4z" class="s0"/><path fill-rule="evenodd" d="m349.9 449.5-93-44.9 25.4-12.2 52.3 25.3 43.2-188.9 17.6 22z" class="s0"/><path fill-rule="evenodd" d="m465.8 304-93 44.7 6.3-27.4 52.3-25.1-120.6-151.6h28.1z" class="s0"/><path fill-rule="evenodd" d="M257 482C132.6 482 32 381.4 32 257S132.6 32 257 32s225 100.6 225 225-100.6 225-225 225z" class="s0"/><path fill-rule="evenodd" d="M257 512C116 512 2 398 2 257S116 2 257 2s255 114 255 255-114 255-255 255z" class="s0"/></svg>