<svg version="1.2" xmlns="http://www.w3.org/2000/svg" viewBox="0 0 600 600"><style
  >.a{fill:none;stroke:#000;stroke-miterlimit:10;stroke-width:5}.b{fill:none;stroke:#000;stroke-miterlimit:100;stroke-width:5}</style><path
    class="a"
    d="m467.4 165.7l-22.9 100.6-17.6-22 13-56.6h-193.8l17.6-22z"
  /><path class="a" d="m299.9 85l64.3 80.7h-28.1l-36.2-45.4-120.9 151.5-6.2-27.5z" /><path
    class="a"
    d="m132.3 165.7h103.2l-17.5 22h-58.1l43 188.9-25.3-12.2z"
  /><path class="a" d="m90.9 347l64.4-80.6 6.3 27.4-36.3 45.4 174.5 84.1-25.3 12.2z" /><path
    class="a"
    d="m206.9 492.5l-22.9-100.7 25.3 12.2 12.9 56.7 174.6-84-6.3 27.4z"
  /><path class="a" d="m392.9 492.5l-93-44.9 25.4-12.2 52.3 25.3 43.2-188.9 17.6 22z" /><path
    class="a"
    d="m508.8 347l-93 44.7 6.3-27.4 52.3-25.1-120.6-151.6h28.1z"
  /><path
    class="b"
    d="m299.5 537c-131.3 0-237.5-106.2-237.5-237.5 0-131.3 106.2-237.5 237.5-237.5 131.3 0 237.5 106.2 237.5 237.5 0 131.3-106.2 237.5-237.5 237.5z"
  /><path
    class="b"
    d="m299.5 557c-142.4 0-257.5-115.1-257.5-257.5 0-142.4 115.1-257.5 257.5-257.5 142.4 0 257.5 115.1 257.5 257.5 0 142.4-115.1 257.5-257.5 257.5z"
  /></svg>
