<svg version="1.2" xmlns="http://www.w3.org/2000/svg" viewBox="0 0 478 478" width="200" height="200"><style>.a{fill:#fff}.b{stroke:#000;stroke-width:5}</style><path class="a" d="m239 474c-130 0-235-105-235-235 0-130 105-235 235-235 130 0 235 105 235 235 0 130-105 235-235 235z"/><path fill-rule="evenodd" class="b" d="m406 72.3c92.1 92.2 92 241.6-0.3 333.7-92.2 92.1-241.6 92-333.7-0.2-92.1-92.3-92-241.7 0.3-333.8 8.2-8.2 16.9-15.8 26.2-22.6 46.2-24.9 103.5-15.5 140.6 21.7 46.4 46.4 46.3 121.6-0.1 167.9-45.9 45.9-46 120.3-0.1 166.2 45.8 45.9 120.2 46 166.1 0.1 91.9-91.7 92-240.5 0.3-332.3-45.1-45.2-104.5-68.5-164.5-69-44.8-0.3-90.2 11.2-129.8 36.7 37.7-24.3 82-37.6 127.6-37.7 62.8-0.1 123 24.8 167.4 69.3zm-295-31.6q-6.4 4.2-12.5 8.7 0 0 0 0 6.1-4.6 12.5-8.7zm51 343.6h40c-78.2-86-24.9-152.7 24-250h-40c-22 35.2-39.3 75.1-55.2 116.4-15.6-37-30.9-74.3-40.8-116.4h-40c29.6 102.3 64.4 172.7 112 250z"/><path  d="m276 93.7c78.2 86 24.9 152.7-24 250h40c22-35.2 39.4-75.1 55.3-116.4 15.5 37 30.8 74.3 40.7 116.4h40c-29.6-102.3-64.4-172.7-112-250z"/></svg>