<svg version="1.2" xmlns="http://www.w3.org/2000/svg" viewBox="0 0 500 500" width="500" height="500"><style/><path d="m156 206.2q4.5 0 6.4 2.1 1.9 2 1.9 6.8 0 4.9-1.9 7-1.9 2-6.4 2h-8.5l-39.2 41.3 42.3 44.7h6.8q4.4 0 6.3 2.1 2 2 2 6.8 0 4.9-2 7-1.9 2-6.3 2h-45.4q-4.5 0-6.5-2-1.8-2.1-1.8-7 0-4.8 1.8-6.8 2-2.1 6.5-2.1h12.7l-31.7-34-31.5 34h10.4q4.5 0 6.4 2.1 1.9 2 1.9 6.8 0 4.9-1.9 7-1.9 2-6.4 2h-41.4q-4.4 0-6.4-2-1.9-2.1-1.9-7 0-4.8 1.9-6.8 2-2.1 6.4-2.1h6.6l42.9-45-38.8-41h-9.3q-4.5 0-6.5-2-1.9-2.1-1.9-7 0-4.8 1.9-6.8 2-2.1 6.5-2.1h45.3q4.5 0 6.3 2.1 2 2 2 6.8 0 4.9-2 7-1.8 2-6.3 2h-10l27.9 30.3 28.1-30.3h-7.2q-4.5 0-6.5-2-1.8-2.1-1.8-7 0-4.8 1.8-6.8 2-2.1 6.5-2.1zm139.7-37.6q3.6-0.1 5.5 2.4 2.2 2.5 2.2 9.2 0 4.1-1.4 5.9-1.1 1.8-3.5 1.9-35.1 1.8-53.9 18.2-18.9 16.2-22.6 44.1 6.9-8.9 16.9-13.8 10-4.9 21.3-4.9 14.5 0 26.1 6.2 11.8 6.2 18.4 17.6 6.7 11.3 6.7 26.1 0 14.2-6.7 25.5-6.7 11.2-19.1 17.6-12.3 6.3-28.3 6.3-14.3 0-26.5-6.6-12-6.6-19.3-19.1-10.2-17.4-10.2-44.7 0-22.8 9.6-43.1 9.8-20.3 30.9-33.8 21.2-13.5 53.9-15zm-38.4 82.5q-9.6 0-17.2 3.7-7.7 3.6-12 10.1-4.2 6.3-4.2 14.6 0 9.2 4 16.5 4.3 7.2 11.8 11.3 7.6 4.1 17.6 4.1 10.1 0 17.6-3.7 7.5-3.7 11.6-10.4 4.1-6.9 4.1-15.8 0-9.1-4.1-16-4-6.8-11.5-10.5-7.4-3.9-17.7-3.9zm178.4-82.5q11.5 0 11.5 10.3v83.7h21.3q4.5 0 6.4 2.1 2 2 2 6.9 0 4.9-2 7-1.9 1.9-6.4 1.9h-21.3v29.6h17.4q4.5 0 6.3 2.1 2 2 2 6.8 0 4.9-2 7-1.8 2-6.3 2h-56.7q-4.5 0-6.5-2-1.8-2.1-1.8-7 0-4.8 1.8-6.8 2-2.1 6.5-2.1h19.5v-29.6h-63q-4.5 0-6.5-1.9-1.8-2.1-1.8-7 0-4.4 1.3-6.2l63.8-88.7q2.9-4.1 6.2-6.1 3.3-2 8.3-2zm-7.2 28.6l-46.2 65.4h45.1z" fill="#cdd7e1"/></svg>